<svg width="40" height="40" viewBox="0 0 40 40" fill="none" xmlns="http://www.w3.org/2000/svg">
<path d="M39.9964 20C39.9964 31.0453 31.0418 40 19.9965 40C8.95114 40 0 31.0453 0 20C0 8.95469 8.95114 0 19.9965 0C31.0418 0 39.9964 8.95469 39.9964 20Z" fill="#23212C"/>
<mask id="mask0_944_3759" style="mask-type:luminance" maskUnits="userSpaceOnUse" x="1" y="1" width="38" height="38">
<path d="M38.2552 20C38.2552 30.082 30.0818 38.259 19.9962 38.259C9.91059 38.259 1.73718 30.082 1.73718 20C1.73718 9.91792 9.91415 1.74097 19.9962 1.74097C30.0783 1.74097 38.2552 9.91435 38.2552 20Z" fill="white"/>
</mask>
<g mask="url(#mask0_944_3759)">
<path d="M13.7496 17.7596L7.49916 14.5451L7.37073 8.58725L13.5141 4.01001L19.9858 7.53123V13.2109L13.7496 17.7596Z" fill="white" stroke="#23212C" stroke-width="0.63" stroke-miterlimit="10"/>
<path d="M16.0328 25.1303L11.5662 30.1249L5.55476 28.7871L0.977539 22.3333L7.49911 14.5452L13.7496 17.7596L16.0328 25.1303Z" fill="white" stroke="#23212C" stroke-width="0.63" stroke-miterlimit="10"/>
<path d="M5.55495 28.787L1.2988 37.31L-7.17426 34.9269L-9.23633 27.021L-5.22634 20L0.97773 22.3332L5.55495 28.787Z" fill="white" stroke="#23212C" stroke-width="0.63" stroke-miterlimit="10"/>
<path d="M34.3457 28.787L38.5983 37.31L47.0713 34.9269L49.1334 27.021L45.1234 20L38.9194 22.3332L34.3457 28.787Z" fill="white" stroke="#23212C" stroke-width="0.63" stroke-miterlimit="10"/>
<path d="M24.5701 25.1301L28.3303 30.1248L34.3453 28.7869L38.9118 22.3331L32.4153 14.545L26.2433 17.7595L24.5701 25.1301Z" fill="white" stroke="#23212C" stroke-width="0.63" stroke-miterlimit="10"/>
<path d="M7.37079 8.58718L2.24414 5.38346V-0.399625L9.66476 -5.08032L14.7308 0.342432L13.5142 4.00993L7.37079 8.58718Z" fill="white" stroke="#23212C" stroke-width="0.63" stroke-miterlimit="10"/>
<path d="M32.4833 8.7049L37.5992 5.38346L37.5636 -0.399625L30.1465 -5.08032L24.4883 0.342432L26.3113 4.00993L32.4833 8.7049Z" fill="white" stroke="#23212C" stroke-width="0.63" stroke-miterlimit="10"/>
<path d="M26.2435 17.7596L32.4155 14.5451L32.4833 8.70498L26.3113 4.01001L19.986 7.53123V13.2109L26.2435 17.7596Z" fill="white" stroke="#23212C" stroke-width="0.63" stroke-miterlimit="10"/>
<path d="M16.5539 37.731H23.4144L28.3306 30.1249L24.5703 25.1302H16.033L11.5664 30.1249L16.5539 37.731Z" fill="white" stroke="#23212C" stroke-width="0.63" stroke-miterlimit="10"/>
<path d="M16.5538 51.7731H23.4143L31.4486 43.6996L23.4143 37.731H16.5538L8.44824 43.6996L16.5538 51.7731Z" fill="white" stroke="#23212C" stroke-width="0.63" stroke-miterlimit="10"/>
<path d="M16.0331 25.1302L13.7499 17.7595L19.986 13.2108L26.2436 17.7595L24.5704 25.1302H16.0331Z" fill="#23212C"/>
<path d="M0.977877 22.3332L-5.2262 20L2.24437 5.38354L7.37102 8.58726L7.49945 14.5452L0.977877 22.3332Z" fill="#23212C"/>
<path d="M38.9122 22.3332L44.781 11.7767L37.5994 5.38354L32.4834 8.70499L32.4156 14.5452L38.9122 22.3332Z" fill="#23212C"/>
<path d="M5.50505 28.8263L1.29883 37.3101L8.44832 43.6996L16.5539 37.731L11.5664 30.1249L5.50505 28.8263Z" fill="#23212C"/>
<path d="M34.3882 28.8263L38.598 37.3101L31.4485 43.6996L23.3394 37.731L28.3304 30.1249L34.3882 28.8263Z" fill="#23212C"/>
<path d="M24.4881 0.306885L26.3112 4.01006L19.9858 7.53129L13.5142 4.01006L14.7307 0.342563L24.4881 0.306885Z" fill="#23212C"/>
</g>
<mask id="mask1_944_3759" style="mask-type:luminance" maskUnits="userSpaceOnUse" x="1" y="1" width="38" height="38">
<path d="M38.2552 20C38.2552 30.082 30.0818 38.259 19.9962 38.259C9.91059 38.259 1.73718 30.082 1.73718 20C1.73718 9.91792 9.91415 1.74097 19.9962 1.74097C30.0783 1.74097 38.2552 9.91435 38.2552 20Z" fill="white"/>
</mask>
<g mask="url(#mask1_944_3759)">
<path d="M13.7496 17.7596L7.49916 14.5451L7.37073 8.58725L13.5141 4.01001L19.9858 7.53123V13.2109L13.7496 17.7596Z" fill="white" stroke="#23212C" stroke-width="0.63" stroke-miterlimit="10"/>
<path d="M16.0328 25.1303L11.5662 30.1249L5.55476 28.7871L0.977539 22.3333L7.49911 14.5452L13.7496 17.7596L16.0328 25.1303Z" fill="white" stroke="#23212C" stroke-width="0.63" stroke-miterlimit="10"/>
<path d="M5.55495 28.787L1.2988 37.31L-7.17426 34.9269L-9.23633 27.021L-5.22634 20L0.97773 22.3332L5.55495 28.787Z" fill="white" stroke="#23212C" stroke-width="0.63" stroke-miterlimit="10"/>
<path d="M34.3457 28.787L38.5983 37.31L47.0713 34.9269L49.1334 27.021L45.1234 20L38.9194 22.3332L34.3457 28.787Z" fill="white" stroke="#23212C" stroke-width="0.63" stroke-miterlimit="10"/>
<path d="M24.5701 25.1301L28.3303 30.1248L34.3453 28.7869L38.9118 22.3331L32.4153 14.545L26.2433 17.7595L24.5701 25.1301Z" fill="white" stroke="#23212C" stroke-width="0.63" stroke-miterlimit="10"/>
<path d="M7.37079 8.58718L2.24414 5.38346V-0.399625L9.66476 -5.08032L14.7308 0.342432L13.5142 4.00993L7.37079 8.58718Z" fill="white" stroke="#23212C" stroke-width="0.63" stroke-miterlimit="10"/>
<path d="M32.4833 8.7049L37.5992 5.38346L37.5636 -0.399625L30.1465 -5.08032L24.4883 0.342432L26.3113 4.00993L32.4833 8.7049Z" fill="white" stroke="#23212C" stroke-width="0.63" stroke-miterlimit="10"/>
<path d="M26.2435 17.7596L32.4155 14.5451L32.4833 8.70498L26.3113 4.01001L19.986 7.53123V13.2109L26.2435 17.7596Z" fill="white" stroke="#23212C" stroke-width="0.63" stroke-miterlimit="10"/>
<path d="M16.5539 37.731H23.4144L28.3306 30.1249L24.5703 25.1302H16.033L11.5664 30.1249L16.5539 37.731Z" fill="white" stroke="#23212C" stroke-width="0.63" stroke-miterlimit="10"/>
<path d="M16.5538 51.7731H23.4143L31.4486 43.6996L23.4143 37.731H16.5538L8.44824 43.6996L16.5538 51.7731Z" fill="white" stroke="#23212C" stroke-width="0.63" stroke-miterlimit="10"/>
<path d="M16.0331 25.1302L13.7499 17.7595L19.986 13.2108L26.2436 17.7595L24.5704 25.1302H16.0331Z" fill="#23212C"/>
<path d="M0.977877 22.3332L-5.2262 20L2.24437 5.38354L7.37102 8.58726L7.49945 14.5452L0.977877 22.3332Z" fill="#23212C"/>
<path d="M38.9122 22.3332L44.781 11.7767L37.5994 5.38354L32.4834 8.70499L32.4156 14.5452L38.9122 22.3332Z" fill="#23212C"/>
<path d="M5.50505 28.8263L1.29883 37.3101L8.44832 43.6996L16.5539 37.731L11.5664 30.1249L5.50505 28.8263Z" fill="#23212C"/>
<path d="M34.3882 28.8263L38.598 37.3101L31.4485 43.6996L23.3394 37.731L28.3304 30.1249L34.3882 28.8263Z" fill="#23212C"/>
<path d="M24.4881 0.306885L26.3112 4.01006L19.9858 7.53129L13.5142 4.01006L14.7307 0.342563L24.4881 0.306885Z" fill="#23212C"/>
</g>
</svg>
