<svg width="28" height="29" viewBox="0 0 28 29" fill="none" xmlns="http://www.w3.org/2000/svg">
<path d="M1 7.23077H27M8.58333 7.23077V6.19231C8.58333 4.81522 9.15402 3.49454 10.1698 2.52079C11.1857 1.54705 12.5634 1 14 1C15.4366 1 16.8143 1.54705 17.8302 2.52079C18.846 3.49454 19.4167 4.81522 19.4167 6.19231V7.23077M10.75 11.3846V22.8077M17.25 11.3846V22.8077M4.25 7.23077H23.75V25.9231C23.75 26.4739 23.5217 27.0022 23.1154 27.3917C22.7091 27.7812 22.158 28 21.5833 28H6.41667C5.84203 28 5.29093 27.7812 4.8846 27.3917C4.47827 27.0022 4.25 26.4739 4.25 25.9231V7.23077Z" stroke="#FF3B30" stroke-width="1.2" stroke-linecap="round" stroke-linejoin="round"/>
</svg>
