<svg width="44" height="44" viewBox="0 0 44 44" fill="none" xmlns="http://www.w3.org/2000/svg">
<path d="M21.0767 2.21993C21.4183 1.39864 22.5817 1.39864 22.9233 2.21993L27.5845 13.4268C27.7285 13.773 28.0541 14.0096 28.4279 14.0395L40.5266 15.0095C41.4133 15.0806 41.7728 16.1871 41.0973 16.7658L31.8793 24.6619C31.5945 24.9059 31.4702 25.2886 31.5572 25.6534L34.3734 37.4597C34.5798 38.3249 33.6385 39.0088 32.8795 38.5451L22.5213 32.2184C22.2012 32.0229 21.7988 32.0229 21.4787 32.2184L11.1205 38.5451C10.3615 39.0088 9.4202 38.3249 9.62658 37.4597L12.4428 25.6534C12.5298 25.2886 12.4055 24.9059 12.1207 24.6619L2.90271 16.7658C2.22718 16.1871 2.5867 15.0806 3.47336 15.0095L15.5721 14.0395C15.9459 14.0096 16.2715 13.773 16.4155 13.4268L21.0767 2.21993Z" fill="#FFCA28"/>
</svg>
