<svg width="32" height="32" viewBox="0 0 32 32" fill="none" xmlns="http://www.w3.org/2000/svg">
<path d="M16 32C24.8366 32 32 24.8366 32 16C32 7.16344 24.8366 0 16 0C7.16344 0 0 7.16344 0 16C0 24.8366 7.16344 32 16 32Z" fill="#FFCA28"/>
<path d="M22.3642 24.636C22.1082 24.636 21.8522 24.538 21.6562 24.344C18.6322 21.32 13.3642 21.32 10.3422 24.344C9.95224 24.734 9.31824 24.734 8.92824 24.344C8.53824 23.954 8.53824 23.32 8.92824 22.93C10.8182 21.042 13.3282 20 16.0002 20C18.6722 20 21.1822 21.042 23.0702 22.93C23.4602 23.32 23.4602 23.954 23.0702 24.344C22.8762 24.54 22.6202 24.636 22.3642 24.636Z" fill="#5F5E6D"/>
<path d="M10 14C11.1046 14 12 13.1046 12 12C12 10.8954 11.1046 10 10 10C8.89543 10 8 10.8954 8 12C8 13.1046 8.89543 14 10 14Z" fill="#5F5E6D"/>
<path d="M22 14C23.1046 14 24 13.1046 24 12C24 10.8954 23.1046 10 22 10C20.8954 10 20 10.8954 20 12C20 13.1046 20.8954 14 22 14Z" fill="#5F5E6D"/>
</svg>
