<svg width="32" height="32" viewBox="0 0 32 32" fill="none" xmlns="http://www.w3.org/2000/svg">
<path d="M15.976 31.952C24.7993 31.952 31.952 24.7993 31.952 15.976C31.952 7.15271 24.7993 0 15.976 0C7.15271 0 0 7.15271 0 15.976C0 24.7993 7.15271 31.952 15.976 31.952Z" fill="#FFCA28"/>
<path d="M28.6973 1.28339C27.9265 1.28339 27.1996 1.543 26.6271 1.99033C26.0546 1.543 25.3277 1.28339 24.5569 1.28339C22.7622 1.28339 21.3018 2.67863 21.3018 4.39339C21.3018 7.06537 25.2625 9.96502 26.0546 10.5189C26.2277 10.6387 26.4274 10.6986 26.6271 10.6986C26.8268 10.6986 27.0265 10.6387 27.1996 10.5189C27.9917 9.96369 31.9524 7.06537 31.9524 4.39339C31.9524 2.67863 30.492 1.28339 28.6973 1.28339Z" fill="#FF3B30"/>
<path d="M7.39557 22.5848C6.62472 22.5848 5.89781 22.8444 5.32534 23.2917C4.75287 22.8444 4.02596 22.5848 3.25511 22.5848C1.46047 22.5848 0 23.98 0 25.6948C0 28.3668 3.96072 31.2664 4.75287 31.8202C4.92594 31.9401 5.12564 32 5.32534 32C5.52504 32 5.72474 31.9401 5.89781 31.8202C6.68996 31.2651 10.6507 28.3668 10.6507 25.6948C10.6507 23.98 9.19021 22.5848 7.39557 22.5848Z" fill="#FF3B30"/>
<path d="M12.3144 14.9775C11.7633 14.9775 11.3159 14.5301 11.3159 13.979C11.3159 13.2454 10.7195 12.6476 9.98459 12.6476C9.24969 12.6476 8.65325 13.2454 8.65325 13.979C8.65325 14.5301 8.20592 14.9775 7.65475 14.9775C7.10358 14.9775 6.65625 14.5301 6.65625 13.979C6.65625 12.1444 8.14868 10.6506 9.98459 10.6506C11.8205 10.6506 13.3129 12.1444 13.3129 13.979C13.3129 14.5301 12.8656 14.9775 12.3144 14.9775Z" fill="#5F5E6D"/>
<path d="M24.2968 14.9775C23.7457 14.9775 23.2983 14.5301 23.2983 13.979C23.2983 13.2454 22.7019 12.6476 21.967 12.6476C21.2321 12.6476 20.6357 13.2454 20.6357 13.979C20.6357 14.5301 20.1883 14.9775 19.6372 14.9775C19.086 14.9775 18.6387 14.5301 18.6387 13.979C18.6387 12.1444 20.1311 10.6506 21.967 10.6506C23.8029 10.6506 25.2953 12.1444 25.2953 13.979C25.2953 14.5301 24.848 14.9775 24.2968 14.9775Z" fill="#5F5E6D"/>
<path d="M15.976 23.964C13.0683 23.964 10.3364 22.8324 8.28084 20.7755C7.89076 20.3854 7.89076 19.753 8.28084 19.3629C8.67092 18.9729 9.30331 18.9729 9.69339 19.3629C11.3709 21.0431 13.6022 21.967 15.976 21.967C18.3497 21.967 20.581 21.0431 22.2599 19.3643C22.6499 18.9742 23.2823 18.9742 23.6724 19.3643C24.0625 19.7543 24.0625 20.3867 23.6724 20.7768C21.6155 22.8324 18.8836 23.964 15.976 23.964Z" fill="#5F5E6D"/>
</svg>
