<svg width="20" height="20" viewBox="0 0 20 20" fill="none" xmlns="http://www.w3.org/2000/svg">
<path d="M9.03919 19.0497L9.03943 19.0497C9.2022 19.0486 9.35737 18.9794 9.47162 18.8582L9.47165 18.8582L18.1988 9.58047C18.4686 9.29719 18.6827 8.95989 18.8287 8.58823C18.9748 8.21658 19.05 7.81787 19.05 7.41521C19.05 7.01255 18.9748 6.61384 18.8287 6.24219C18.6827 5.87057 18.4686 5.53331 18.1989 5.25005C18.1988 5.25001 18.1988 5.24998 18.1988 5.24995L15.0086 1.85679C15.0086 1.85675 15.0085 1.8567 15.0085 1.85666C14.7417 1.5697 14.424 1.34169 14.0734 1.186C13.7229 1.03027 13.3466 0.950026 12.9665 0.95L12.9574 0.95L12.9573 0.95C12.5797 0.950374 12.206 1.03074 11.858 1.18632C11.5101 1.34186 11.1951 1.56941 10.9311 1.85554C10.9311 1.85561 10.931 1.85567 10.9309 1.85573L1.80124 11.5664C1.80121 11.5665 1.80118 11.5665 1.80115 11.5665C1.53136 11.8498 1.31731 12.1871 1.17125 12.5587C1.02518 12.9303 0.95 13.329 0.95 13.7317C0.95 14.1344 1.02518 14.5331 1.17125 14.9047C1.31731 15.2763 1.53136 15.6136 1.80114 15.8969C1.80118 15.8969 1.80121 15.8969 1.80124 15.897L4.58525 18.8582L4.58528 18.8582C4.70065 18.9807 4.85775 19.0501 5.02221 19.05C5.18667 19.0499 5.34367 18.9802 5.45888 18.8575C5.57399 18.7349 5.6381 18.5693 5.63799 18.3973C5.63787 18.2253 5.57354 18.0598 5.45827 17.9373L2.67405 14.9771L2.67385 14.9769C2.51814 14.8133 2.39443 14.6183 2.31008 14.403C2.22572 14.1878 2.18245 13.9567 2.18285 13.7234C2.18345 13.493 2.22722 13.2652 2.31155 13.0533C2.39588 12.8413 2.51902 12.6495 2.67363 12.4891L2.67405 12.4887L11.8156 2.77139L11.816 2.77093C11.9664 2.60701 12.1459 2.47685 12.3438 2.38792C12.5417 2.299 12.7541 2.25304 12.9687 2.25263C13.186 2.25315 13.4011 2.29946 13.6017 2.38899C13.8023 2.47854 13.9844 2.60959 14.1374 2.77473L14.1377 2.77499L17.3282 6.16858L17.3284 6.16881C17.4841 6.33237 17.6078 6.52741 17.6922 6.74266C17.7765 6.95791 17.8198 7.18895 17.8194 7.4223C17.8188 7.65264 17.775 7.88048 17.6907 8.09245C17.6064 8.30442 17.4832 8.49617 17.3286 8.65657L17.3282 8.65702L8.60206 17.9373C8.51595 18.0287 8.4576 18.1448 8.43397 18.2708C8.41034 18.3968 8.4224 18.5275 8.46873 18.6464C8.51507 18.7653 8.59375 18.8674 8.69525 18.9394C8.7968 19.0114 8.91651 19.0499 9.03919 19.0497Z" fill="white" stroke="white" stroke-width="0.1"/>
<path d="M5.02122 19.0497H16.792C16.9563 19.0497 17.1133 18.9802 17.2285 18.8577C17.3437 18.7352 17.4079 18.5698 17.4079 18.3978C17.4079 18.2259 17.3437 18.0604 17.2285 17.9379C17.1133 17.8154 16.9563 17.7459 16.792 17.7459H5.02122C4.85685 17.7459 4.69987 17.8154 4.58464 17.9379C4.46951 18.0604 4.40532 18.2259 4.40532 18.3978C4.40532 18.5698 4.46951 18.7352 4.58464 18.8577C4.69987 18.9802 4.85685 19.0497 5.02122 19.0497Z" fill="white" stroke="white" stroke-width="0.1"/>
<path d="M11.0706 16.2456L11.0706 16.2457C11.1858 16.3678 11.3425 16.4371 11.5065 16.4371H11.5065C11.629 16.4371 11.7484 16.3985 11.8496 16.3265C11.9509 16.2546 12.0294 16.1527 12.0757 16.0341C12.1219 15.9155 12.1341 15.7851 12.1107 15.6593C12.0873 15.5335 12.0293 15.4175 11.9437 15.3261L11.9436 15.326L5.54893 8.52436L5.54894 8.52436L5.54833 8.52374C5.43241 8.40465 5.27649 8.33817 5.11399 8.33967C4.95149 8.34118 4.79671 8.41052 4.68279 8.5317C4.56896 8.65277 4.50488 8.81594 4.50349 8.98593C4.5021 9.15591 4.5635 9.32021 4.67531 9.44333L4.6753 9.44334L4.67589 9.44397L11.0706 16.2456Z" fill="white" stroke="white" stroke-width="0.1"/>
</svg>
