<svg width="15" height="20" viewBox="0 0 15 20" fill="none" xmlns="http://www.w3.org/2000/svg">
<path d="M10.6644 8.04698V4.22148C10.6644 3.36709 10.325 2.54769 9.72084 1.94355C9.1167 1.3394 8.2973 1 7.44291 1C6.58852 1 5.76913 1.3394 5.16498 1.94355C4.56084 2.54769 4.22144 3.36709 4.22144 4.22148V8.04698" stroke="white" stroke-width="1.2" stroke-linecap="round" stroke-linejoin="round"/>
<path d="M11.953 8.047H2.93289C1.86538 8.047 1 8.91238 1 9.97988V17.0671C1 18.1346 1.86538 19 2.93289 19H11.953C13.0205 19 13.8859 18.1346 13.8859 17.0671V9.97988C13.8859 8.91238 13.0205 8.047 11.953 8.047Z" stroke="white" stroke-width="1.2" stroke-linecap="round" stroke-linejoin="round"/>
</svg>
