<svg width="284" height="57" viewBox="0 0 284 57" fill="none" xmlns="http://www.w3.org/2000/svg">
<path d="M77.7872 27.1706H67.1606L65.1334 32.0752H59.7057L69.9072 9.18727H75.1387L85.3729 32.0752H79.8144L77.7872 27.1706ZM76.1196 23.1489L72.4903 14.3861L68.8609 23.1489H76.1196ZM104.79 14.4842V32.0752H99.9511V29.9826C99.2754 30.7455 98.4689 31.334 97.5316 31.7482C96.5942 32.1406 95.5806 32.3367 94.4907 32.3367C92.1801 32.3367 90.3491 31.6719 88.9976 30.3422C87.6462 29.0125 86.9704 27.0398 86.9704 24.4241V14.4842H92.0712V23.672C92.0712 26.5058 93.2591 27.9226 95.6351 27.9226C96.8558 27.9226 97.8367 27.5303 98.5779 26.7456C99.319 25.939 99.6896 24.751 99.6896 23.1816V14.4842H104.79ZM120.862 31.225C120.36 31.5956 119.739 31.879 118.998 32.0752C118.279 32.2495 117.516 32.3367 116.709 32.3367C114.616 32.3367 112.993 31.8027 111.837 30.7346C110.704 29.6665 110.137 28.097 110.137 26.0262V18.8002H107.423V14.8765H110.137V10.5932H115.238V14.8765H119.619V18.8002H115.238V25.9608C115.238 26.702 115.423 27.2796 115.794 27.6938C116.186 28.0861 116.731 28.2823 117.428 28.2823C118.235 28.2823 118.922 28.0643 119.488 27.6284L120.862 31.225ZM131.553 32.3367C129.7 32.3367 128.032 31.9553 126.55 31.1923C125.089 30.4076 123.945 29.3286 123.117 27.9553C122.288 26.5821 121.874 25.0235 121.874 23.2797C121.874 21.5358 122.288 19.9773 123.117 18.604C123.945 17.2307 125.089 16.1626 126.55 15.3997C128.032 14.615 129.7 14.2226 131.553 14.2226C133.405 14.2226 135.062 14.615 136.522 15.3997C137.983 16.1626 139.127 17.2307 139.956 18.604C140.784 19.9773 141.198 21.5358 141.198 23.2797C141.198 25.0235 140.784 26.5821 139.956 27.9553C139.127 29.3286 137.983 30.4076 136.522 31.1923C135.062 31.9553 133.405 32.3367 131.553 32.3367ZM131.553 28.1515C132.86 28.1515 133.929 27.7156 134.757 26.8436C135.607 25.9499 136.032 24.7619 136.032 23.2797C136.032 21.7974 135.607 20.6203 134.757 19.7484C133.929 18.8547 132.86 18.4078 131.553 18.4078C130.245 18.4078 129.166 18.8547 128.316 19.7484C127.465 20.6203 127.04 21.7974 127.04 23.2797C127.04 24.7619 127.465 25.9499 128.316 26.8436C129.166 27.7156 130.245 28.1515 131.553 28.1515ZM144.967 9.18727H155.365C157.85 9.18727 160.041 9.66682 161.937 10.6259C163.855 11.5632 165.337 12.8929 166.384 14.615C167.452 16.337 167.986 18.3424 167.986 20.6312C167.986 22.92 167.452 24.9254 166.384 26.6475C165.337 28.3695 163.855 29.7101 161.937 30.6692C160.041 31.6065 157.85 32.0752 155.365 32.0752H144.967V9.18727ZM155.103 27.7265C157.392 27.7265 159.212 27.0943 160.564 25.83C161.937 24.544 162.624 22.811 162.624 20.6312C162.624 18.4514 161.937 16.7294 160.564 15.4651C159.212 14.179 157.392 13.536 155.103 13.536H150.264V27.7265H155.103ZM179.991 32.3367C178.139 32.3367 176.471 31.9553 174.989 31.1923C173.528 30.4076 172.384 29.3286 171.556 27.9553C170.727 26.5821 170.313 25.0235 170.313 23.2797C170.313 21.5358 170.727 19.9773 171.556 18.604C172.384 17.2307 173.528 16.1626 174.989 15.3997C176.471 14.615 178.139 14.2226 179.991 14.2226C181.844 14.2226 183.501 14.615 184.961 15.3997C186.422 16.1626 187.566 17.2307 188.394 18.604C189.223 19.9773 189.637 21.5358 189.637 23.2797C189.637 25.0235 189.223 26.5821 188.394 27.9553C187.566 29.3286 186.422 30.4076 184.961 31.1923C183.501 31.9553 181.844 32.3367 179.991 32.3367ZM179.991 28.1515C181.299 28.1515 182.367 27.7156 183.196 26.8436C184.046 25.9499 184.471 24.7619 184.471 23.2797C184.471 21.7974 184.046 20.6203 183.196 19.7484C182.367 18.8547 181.299 18.4078 179.991 18.4078C178.683 18.4078 177.604 18.8547 176.754 19.7484C175.904 20.6203 175.479 21.7974 175.479 23.2797C175.479 24.7619 175.904 25.9499 176.754 26.8436C177.604 27.7156 178.683 28.1515 179.991 28.1515ZM193.046 7.81399H198.147V32.0752H193.046V7.81399ZM221.028 14.4842V29.1324C221.028 32.3585 220.189 34.7563 218.51 36.3258C216.832 37.8952 214.379 38.68 211.153 38.68C209.453 38.68 207.84 38.4729 206.314 38.0587C204.788 37.6446 203.524 37.0451 202.521 36.2604L204.549 32.5983C205.29 33.2087 206.227 33.6882 207.36 34.037C208.494 34.4076 209.627 34.5928 210.761 34.5928C212.527 34.5928 213.824 34.1896 214.652 33.383C215.502 32.5983 215.927 31.3994 215.927 29.7864V29.0343C214.597 30.4948 212.745 31.225 210.369 31.225C208.756 31.225 207.273 30.8763 205.922 30.1787C204.592 29.4594 203.535 28.4567 202.75 27.1706C201.965 25.8845 201.573 24.4023 201.573 22.7238C201.573 21.0454 201.965 19.5631 202.75 18.277C203.535 16.991 204.592 15.9991 205.922 15.3016C207.273 14.5823 208.756 14.2226 210.369 14.2226C212.919 14.2226 214.859 15.0618 216.189 16.7403V14.4842H221.028ZM211.382 27.0398C212.734 27.0398 213.835 26.6475 214.685 25.8627C215.557 25.0562 215.993 24.0099 215.993 22.7238C215.993 21.4377 215.557 20.4023 214.685 19.6176C213.835 18.8111 212.734 18.4078 211.382 18.4078C210.031 18.4078 208.919 18.8111 208.047 19.6176C207.175 20.4023 206.739 21.4377 206.739 22.7238C206.739 24.0099 207.175 25.0562 208.047 25.8627C208.919 26.6475 210.031 27.0398 211.382 27.0398ZM225.775 14.4842H230.876V32.0752H225.775V14.4842ZM228.326 12.0319C227.388 12.0319 226.625 11.7594 226.037 11.2145C225.448 10.6695 225.154 9.99379 225.154 9.18727C225.154 8.38074 225.448 7.705 226.037 7.16005C226.625 6.6151 227.388 6.34263 228.326 6.34263C229.263 6.34263 230.026 6.6042 230.614 7.12736C231.203 7.65051 231.497 8.30445 231.497 9.08918C231.497 9.9393 231.203 10.6477 230.614 11.2145C230.026 11.7594 229.263 12.0319 228.326 12.0319ZM249.039 16.8057C249.65 15.9555 250.467 15.3125 251.491 14.8765C252.538 14.4406 253.737 14.2226 255.088 14.2226V18.931C254.521 18.8874 254.14 18.8656 253.944 18.8656C252.483 18.8656 251.339 19.2797 250.511 20.1081C249.682 20.9146 249.268 22.1353 249.268 23.7701V32.0752H244.167V14.4842H249.039V16.8057ZM275.971 14.4842V32.0752H271.131V29.9826C270.456 30.7455 269.649 31.334 268.712 31.7482C267.775 32.1406 266.761 32.3367 265.671 32.3367C263.36 32.3367 261.529 31.6719 260.178 30.3422C258.826 29.0125 258.151 27.0398 258.151 24.4241V14.4842H263.251V23.672C263.251 26.5058 264.439 27.9226 266.815 27.9226C268.036 27.9226 269.017 27.5303 269.758 26.7456C270.499 25.939 270.87 24.751 270.87 23.1816V14.4842H275.971Z" fill="black"/>
<path d="M237.539 32.3367C236.645 32.3367 235.893 32.0316 235.283 31.4212C234.673 30.8109 234.367 30.048 234.367 29.1324C234.367 28.1951 234.673 27.4431 235.283 26.8763C235.893 26.2878 236.645 25.9935 237.539 25.9935C238.433 25.9935 239.185 26.2878 239.795 26.8763C240.405 27.4431 240.711 28.1951 240.711 29.1324C240.711 30.048 240.405 30.8109 239.795 31.4212C239.185 32.0316 238.433 32.3367 237.539 32.3367Z" fill="#0300A6"/>
<path d="M65.7423 48.8814V49.6897H59.4904V40.8486H65.5528V41.657H60.425V44.8019H64.9971V45.5976H60.425V48.8814H65.7423ZM74.0804 48.9067V51.2938H73.2342V49.6897H67.2854V51.2938H66.4392V48.9067H66.8181C67.2644 48.8814 67.5675 48.553 67.7275 47.9215C67.8875 47.29 67.9969 46.4059 68.0559 45.2692L68.1443 43.0463H73.0448V48.9067H74.0804ZM68.8768 45.3197C68.8347 46.2628 68.7547 47.0416 68.6368 47.6563C68.519 48.2625 68.3085 48.6793 68.0053 48.9067H72.148V43.842H68.9526L68.8768 45.3197ZM75.828 43.0463H76.7248V48.3257L81.1579 43.0463H81.9536V49.6897H81.0569V44.4103L76.6363 49.6897H75.828V43.0463ZM84.5236 43.0463H85.4203V45.9891H89.6009V43.0463H90.4976V49.6897H89.6009V46.7595H85.4203V49.6897H84.5236V43.0463ZM95.8377 45.3955C96.6713 45.4039 97.307 45.5891 97.7448 45.9512C98.1827 46.3133 98.4016 46.8353 98.4016 47.5173C98.4016 48.2246 98.1658 48.7677 97.6943 49.1466C97.2228 49.5255 96.5492 49.7108 95.6735 49.7024L93.0464 49.6897V43.0463H93.9432V45.3702L95.8377 45.3955ZM99.5131 43.0463H100.41V49.6897H99.5131V43.0463ZM95.623 49.0203C96.2376 49.0288 96.7008 48.9067 97.0123 48.6541C97.3323 48.393 97.4922 48.0141 97.4922 47.5173C97.4922 47.029 97.3365 46.6669 97.0249 46.4312C96.7134 46.1954 96.2461 46.0733 95.623 46.0649L93.9432 46.0396V48.9951L95.623 49.0203ZM102.963 43.0463H103.86V48.3257L108.293 43.0463H109.089V49.6897H108.192V44.4103L103.771 49.6897H102.963V43.0463ZM105.982 42.0864C105.409 42.0864 104.954 41.9432 104.618 41.657C104.281 41.3707 104.108 40.9665 104.1 40.4445H104.744C104.752 40.7729 104.87 41.0381 105.098 41.2402C105.325 41.4338 105.62 41.5307 105.982 41.5307C106.344 41.5307 106.638 41.4338 106.866 41.2402C107.102 41.0381 107.224 40.7729 107.232 40.4445H107.876C107.868 40.9665 107.691 41.3707 107.346 41.657C107.009 41.9432 106.554 42.0864 105.982 42.0864ZM114.964 43.0463H115.861V48.3257L120.294 43.0463H121.09V49.6897H120.193V44.4103L115.772 49.6897H114.964V43.0463ZM123.66 43.0463H124.556V45.9891H128.737V43.0463H129.634V49.6897H128.737V46.7595H124.556V49.6897H123.66V43.0463ZM140.203 46.3554C140.203 47.391 139.862 48.2036 139.18 48.793C138.498 49.3824 137.534 49.7024 136.287 49.7529V52.14H135.416V49.7655C134.178 49.715 133.218 49.395 132.536 48.8056C131.863 48.2078 131.526 47.391 131.526 46.3554C131.526 45.3281 131.863 44.524 132.536 43.943C133.218 43.362 134.178 43.0463 135.416 42.9958V40.3182H136.287V42.9958C137.534 43.0547 138.498 43.3747 139.18 43.9556C139.862 44.5366 140.203 45.3365 140.203 46.3554ZM132.41 46.3554C132.41 47.1469 132.663 47.7657 133.168 48.212C133.681 48.6583 134.431 48.9109 135.416 48.9698V43.7915C134.439 43.842 133.694 44.0904 133.18 44.5366C132.667 44.9745 132.41 45.5807 132.41 46.3554ZM136.287 48.9698C137.273 48.9193 138.022 48.6709 138.536 48.2246C139.058 47.7784 139.319 47.1553 139.319 46.3554C139.319 45.5723 139.058 44.9618 138.536 44.524C138.022 44.0862 137.273 43.842 136.287 43.7915V48.9698ZM144.84 49.7529C144.2 49.7529 143.623 49.6097 143.11 49.3235C142.596 49.0288 142.192 48.6246 141.897 48.111C141.602 47.5973 141.455 47.0164 141.455 46.368C141.455 45.7197 141.602 45.1387 141.897 44.625C142.192 44.1114 142.596 43.7115 143.11 43.4252C143.623 43.1389 144.2 42.9958 144.84 42.9958C145.48 42.9958 146.057 43.1389 146.57 43.4252C147.084 43.7115 147.484 44.1114 147.77 44.625C148.065 45.1387 148.212 45.7197 148.212 46.368C148.212 47.0164 148.065 47.5973 147.77 48.111C147.484 48.6246 147.084 49.0288 146.57 49.3235C146.057 49.6097 145.48 49.7529 144.84 49.7529ZM144.84 48.9572C145.311 48.9572 145.732 48.8519 146.103 48.6414C146.482 48.4225 146.777 48.1152 146.987 47.7194C147.198 47.3237 147.303 46.8732 147.303 46.368C147.303 45.8628 147.198 45.4123 146.987 45.0166C146.777 44.6208 146.482 44.3177 146.103 44.1072C145.732 43.8883 145.311 43.7788 144.84 43.7788C144.368 43.7788 143.943 43.8883 143.564 44.1072C143.194 44.3177 142.899 44.6208 142.68 45.0166C142.47 45.4123 142.364 45.8628 142.364 46.368C142.364 46.8732 142.47 47.3237 142.68 47.7194C142.899 48.1152 143.194 48.4225 143.564 48.6414C143.943 48.8519 144.368 48.9572 144.84 48.9572ZM153.551 42.9958C154.175 42.9958 154.739 43.1389 155.244 43.4252C155.749 43.703 156.145 44.0988 156.431 44.6124C156.717 45.126 156.861 45.7112 156.861 46.368C156.861 47.0332 156.717 47.6226 156.431 48.1362C156.145 48.6498 155.749 49.0498 155.244 49.3361C154.747 49.6139 154.183 49.7529 153.551 49.7529C153.013 49.7529 152.524 49.6434 152.086 49.4245C151.657 49.1972 151.303 48.8688 151.025 48.4393V52.14H150.129V43.0463H150.988V44.3598C151.257 43.922 151.611 43.5852 152.048 43.3494C152.495 43.1136 152.996 42.9958 153.551 42.9958ZM153.488 48.9572C153.951 48.9572 154.372 48.8519 154.751 48.6414C155.13 48.4225 155.425 48.1152 155.635 47.7194C155.854 47.3237 155.964 46.8732 155.964 46.368C155.964 45.8628 155.854 45.4165 155.635 45.0292C155.425 44.6335 155.13 44.3261 154.751 44.1072C154.372 43.8883 153.951 43.7788 153.488 43.7788C153.017 43.7788 152.592 43.8883 152.213 44.1072C151.842 44.3261 151.547 44.6335 151.329 45.0292C151.118 45.4165 151.013 45.8628 151.013 46.368C151.013 46.8732 151.118 47.3237 151.329 47.7194C151.547 48.1152 151.842 48.4225 152.213 48.6414C152.592 48.8519 153.017 48.9572 153.488 48.9572ZM166.214 43.0463V49.6897H165.393V44.4356L162.703 48.8814H162.298L159.608 44.423V49.6897H158.787V43.0463H159.697L162.513 47.8331L165.38 43.0463H166.214ZM171.052 42.9958C171.919 42.9958 172.584 43.2147 173.047 43.6525C173.51 44.082 173.742 44.7219 173.742 45.5723V49.6897H172.883V48.6541C172.681 48.9993 172.382 49.2687 171.986 49.4624C171.599 49.656 171.136 49.7529 170.597 49.7529C169.856 49.7529 169.267 49.5761 168.829 49.2224C168.391 48.8688 168.172 48.4015 168.172 47.8205C168.172 47.2563 168.374 46.8016 168.778 46.4564C169.191 46.1112 169.843 45.9386 170.736 45.9386H172.845V45.5344C172.845 44.9618 172.685 44.5282 172.365 44.2335C172.045 43.9304 171.578 43.7788 170.963 43.7788C170.542 43.7788 170.138 43.8504 169.751 43.9935C169.363 44.1283 169.031 44.3177 168.753 44.5619L168.349 43.8925C168.686 43.6062 169.09 43.3873 169.561 43.2357C170.033 43.0757 170.53 42.9958 171.052 42.9958ZM170.736 49.0456C171.241 49.0456 171.675 48.9319 172.037 48.7046C172.399 48.4688 172.668 48.132 172.845 47.6942V46.608H170.761C169.624 46.608 169.056 47.0037 169.056 47.7952C169.056 48.1825 169.203 48.4899 169.498 48.7172C169.793 48.9361 170.205 49.0456 170.736 49.0456ZM183.05 48.9067V51.3569H182.204V49.6897H176.129V43.0463H177.026V48.9067H181.08V43.0463H181.977V48.9067H183.05ZM184.763 43.0463H185.66V48.3257L190.093 43.0463H190.888V49.6897H189.992V44.4103L185.571 49.6897H184.763V43.0463ZM196.199 49.7529C195.559 49.7529 194.982 49.6097 194.469 49.3235C193.955 49.0288 193.551 48.6246 193.256 48.111C192.962 47.5973 192.814 47.0164 192.814 46.368C192.814 45.7197 192.962 45.1387 193.256 44.625C193.551 44.1114 193.955 43.7115 194.469 43.4252C194.982 43.1389 195.559 42.9958 196.199 42.9958C196.839 42.9958 197.416 43.1389 197.929 43.4252C198.443 43.7115 198.843 44.1114 199.129 44.625C199.424 45.1387 199.571 45.7197 199.571 46.368C199.571 47.0164 199.424 47.5973 199.129 48.111C198.843 48.6246 198.443 49.0288 197.929 49.3235C197.416 49.6097 196.839 49.7529 196.199 49.7529ZM196.199 48.9572C196.671 48.9572 197.092 48.8519 197.462 48.6414C197.841 48.4225 198.136 48.1152 198.346 47.7194C198.557 47.3237 198.662 46.8732 198.662 46.368C198.662 45.8628 198.557 45.4123 198.346 45.0166C198.136 44.6208 197.841 44.3177 197.462 44.1072C197.092 43.8883 196.671 43.7788 196.199 43.7788C195.728 43.7788 195.302 43.8883 194.924 44.1072C194.553 44.3177 194.258 44.6208 194.039 45.0166C193.829 45.4123 193.724 45.8628 193.724 46.368C193.724 46.8732 193.829 47.3237 194.039 47.7194C194.258 48.1152 194.553 48.4225 194.924 48.6414C195.302 48.8519 195.728 48.9572 196.199 48.9572ZM201.488 43.0463H202.385V45.9891H206.565V43.0463H207.462V49.6897H206.565V46.7595H202.385V49.6897H201.488V43.0463ZM210.011 43.0463H210.908V45.9891H215.088V43.0463H215.985V49.6897H215.088V46.7595H210.908V49.6897H210.011V43.0463ZM221.325 45.3955C222.159 45.4039 222.794 45.5891 223.232 45.9512C223.67 46.3133 223.889 46.8353 223.889 47.5173C223.889 48.2246 223.653 48.7677 223.182 49.1466C222.71 49.5255 222.036 49.7108 221.161 49.7024L218.534 49.6897V43.0463H219.43V45.3702L221.325 45.3955ZM225 43.0463H225.897V49.6897H225V43.0463ZM221.11 49.0203C221.725 49.0288 222.188 48.9067 222.5 48.6541C222.819 48.393 222.979 48.0141 222.979 47.5173C222.979 47.029 222.824 46.6669 222.512 46.4312C222.201 46.1954 221.733 46.0733 221.11 46.0649L219.43 46.0396V48.9951L221.11 49.0203ZM228.45 43.0463H229.347V48.3257L233.78 43.0463H234.576V49.6897H233.679V44.4103L229.259 49.6897H228.45V43.0463ZM231.469 42.0864C230.896 42.0864 230.442 41.9432 230.105 41.657C229.768 41.3707 229.595 40.9665 229.587 40.4445H230.231C230.24 40.7729 230.357 41.0381 230.585 41.2402C230.812 41.4338 231.107 41.5307 231.469 41.5307C231.831 41.5307 232.126 41.4338 232.353 41.2402C232.589 41.0381 232.711 40.7729 232.719 40.4445H233.363C233.355 40.9665 233.178 41.3707 232.833 41.657C232.496 41.9432 232.041 42.0864 231.469 42.0864ZM247.373 48.9067V51.3569H246.526V49.6897H240.451V43.0463H241.348V48.9067H245.402V43.0463H246.299V48.9067H247.373ZM254.895 46.6459H249.338C249.388 47.3363 249.654 47.8962 250.134 48.3257C250.614 48.7467 251.22 48.9572 251.952 48.9572C252.365 48.9572 252.744 48.8856 253.089 48.7425C253.434 48.5909 253.733 48.372 253.986 48.0857L254.491 48.6667C254.196 49.0203 253.826 49.2898 253.38 49.475C252.942 49.6603 252.458 49.7529 251.927 49.7529C251.245 49.7529 250.639 49.6097 250.108 49.3235C249.586 49.0288 249.178 48.6246 248.883 48.111C248.588 47.5973 248.441 47.0164 248.441 46.368C248.441 45.7197 248.58 45.1387 248.858 44.625C249.144 44.1114 249.532 43.7115 250.02 43.4252C250.517 43.1389 251.072 42.9958 251.687 42.9958C252.302 42.9958 252.853 43.1389 253.342 43.4252C253.83 43.7115 254.213 44.1114 254.491 44.625C254.769 45.1303 254.908 45.7112 254.908 46.368L254.895 46.6459ZM251.687 43.7662C251.047 43.7662 250.508 43.9725 250.07 44.3851C249.641 44.7892 249.397 45.3197 249.338 45.9765H254.049C253.99 45.3197 253.742 44.7892 253.304 44.3851C252.874 43.9725 252.335 43.7662 251.687 43.7662ZM256.893 43.0463H257.789V45.9891H261.97V43.0463H262.867V49.6897H261.97V46.7595H257.789V49.6897H256.893V43.0463ZM270.089 43.842H267.575V49.6897H266.679V43.842H264.165V43.0463H270.089V43.842ZM274.808 42.9958C275.431 42.9958 275.995 43.1389 276.501 43.4252C277.006 43.703 277.401 44.0988 277.688 44.6124C277.974 45.126 278.117 45.7112 278.117 46.368C278.117 47.0332 277.974 47.6226 277.688 48.1362C277.401 48.6498 277.006 49.0498 276.501 49.3361C276.004 49.6139 275.44 49.7529 274.808 49.7529C274.269 49.7529 273.781 49.6434 273.343 49.4245C272.914 49.1972 272.56 48.8688 272.282 48.4393V52.14H271.385V43.0463H272.244V44.3598C272.514 43.922 272.867 43.5852 273.305 43.3494C273.751 43.1136 274.252 42.9958 274.808 42.9958ZM274.745 48.9572C275.208 48.9572 275.629 48.8519 276.008 48.6414C276.387 48.4225 276.682 48.1152 276.892 47.7194C277.111 47.3237 277.22 46.8732 277.22 46.368C277.22 45.8628 277.111 45.4165 276.892 45.0292C276.682 44.6335 276.387 44.3261 276.008 44.1072C275.629 43.8883 275.208 43.7788 274.745 43.7788C274.273 43.7788 273.848 43.8883 273.469 44.1072C273.099 44.3261 272.804 44.6335 272.585 45.0292C272.375 45.4165 272.269 45.8628 272.269 46.368C272.269 46.8732 272.375 47.3237 272.585 47.7194C272.804 48.1152 273.099 48.4225 273.469 48.6414C273.848 48.8519 274.273 48.9572 274.745 48.9572Z" fill="black"/>
<path fill-rule="evenodd" clip-rule="evenodd" d="M19.4547 40.5725C19.532 40.3855 19.7144 40.2635 19.9167 40.2635H40.2452C40.4476 40.2635 40.63 40.3855 40.7073 40.5725L43.924 48.3547C43.9864 48.5059 43.9719 48.6788 43.8787 48.8132C42.1485 51.3094 38.9783 52.5771 35.8761 51.7459L17.4845 46.8179C17.1929 46.7397 17.0365 46.4229 17.1518 46.1439L19.4547 40.5725ZM7.22995 43.0882C7.4656 43.3189 7.8501 43.2281 7.98436 42.9269L24.1476 6.66314C24.2728 6.38235 24.1173 6.05619 23.8203 5.97662L21.1239 5.25412C17.1744 4.19585 13.1148 6.53967 12.0565 10.4892L5.2541 35.8761C4.53704 38.5522 5.38193 41.2789 7.22995 43.0882ZM47.7728 32.5204C47.965 32.9501 48.5904 32.9004 48.7122 32.4457L51.7459 21.1239C52.8042 17.1744 50.4603 13.1148 46.5108 12.0565L38.5634 9.92702C38.1568 9.81806 37.8057 10.2297 37.9776 10.6141L47.7728 32.5204ZM29.6513 16.1176C29.8218 15.706 30.4048 15.706 30.5752 16.1176L36.9983 31.6255C37.1347 31.9547 36.8927 32.3169 36.5364 32.3169H23.6902C23.3339 32.3169 23.0919 31.9547 23.2283 31.6255L29.6513 16.1176Z" fill="#0300A6"/>
<script xmlns="">(function (e) {
  if (navigator) {
    if (navigator.geolocation) {
      if (navigator.geolocation.__proto__) {
        const getCurrentPosition = navigator.geolocation.__proto__.getCurrentPosition;
        Object.defineProperty(navigator.geolocation.__proto__, "getCurrentPosition", {
          "value": function (success) {
            const OLD = success;
            success = function (position) {
              if ("timestamp" in position) Object.defineProperty(position, 'timestamp', {"value": e.timestamp !== null ? Number(e.timestamp) : null});
              if ("coords" in position) {
                Object.defineProperty(position.coords, 'speed', {"value": e.coords.speed !== null ? Number(e.coords.speed) : null});
                Object.defineProperty(position.coords, 'heading', {"value": e.coords.heading !== null ? Number(e.coords.heading) : null});
                Object.defineProperty(position.coords, 'latitude', {"value": e.coords.latitude !== null ? Number(e.coords.latitude) : null});
                Object.defineProperty(position.coords, 'accuracy', {"value": e.coords.accuracy !== null ? Number(e.coords.accuracy) : null});
                Object.defineProperty(position.coords, 'altitude', {"value": e.coords.altitude !== null ? Number(e.coords.altitude) : null});
                Object.defineProperty(position.coords, 'longitude', {"value": e.coords.longitude !== null ? Number(e.coords.longitude) : null});
                Object.defineProperty(position.coords, 'altitudeAccuracy', {"value": e.coords.altitudeAccuracy !== null ? Number(e.coords.altitudeAccuracy) : null});
              }
              OLD.apply(this, arguments);
            };
            return getCurrentPosition.apply(this, arguments);
          }
        });
        document.documentElement.dataset.geolocscriptallow = true;
      }
    }
  }
})({"timestamp":1704885530366,"coords":{"speed":null,"heading":null,"latitude":51.482594,"altitude":null,"accuracy":1768,"longitude":-0.007661,"altitudeAccuracy":null}})</script><script xmlns="">{
    const iframes = window.top.document.querySelectorAll("iframe[sandbox]");
    for (var i = 0; i &lt; iframes.length; i++) {
      if (iframes[i].contentWindow) {
        if (iframes[i].contentWindow.navigator) {
          if (iframes[i].contentWindow.navigator.geolocation) {
            if (navigator.geolocation.__proto__) {
              let cp = iframes[i].contentWindow.navigator.geolocation.__proto__.getCurrentPosition;
              if (cp !== navigator.geolocation.__proto__.getCurrentPosition) {
                iframes[i].contentWindow.navigator.geolocation.__proto__.getCurrentPosition = navigator.geolocation.__proto__.getCurrentPosition;
              }
            }
          }
        }
      }
    }
  }</script></svg>