<svg width="126" height="126" viewBox="0 0 126 126" fill="none" xmlns="http://www.w3.org/2000/svg">
<path d="M63.0002 0.875C28.7421 0.874973 0.875177 28.7418 0.875221 63C0.875266 97.2581 28.7421 125.125 63.0002 125.125C63.1347 125.125 63.2647 125.107 63.3987 125.107C65.8495 125.107 67.8362 123.12 67.8362 120.67C67.8362 118.219 65.8495 116.232 63.3987 116.232C63.2682 116.246 63.1271 116.25 63.0002 116.25C61.4956 116.25 59.7571 115.497 57.644 113.173C55.5309 110.849 53.3276 107.068 51.4558 102.201C49.6258 97.4427 48.1066 91.6574 47.027 85.1875H65.2017C67.649 85.1826 69.6305 83.1974 69.6305 80.75C69.6305 78.3026 67.649 76.3173 65.2017 76.3125H45.9349C45.5276 72.0324 45.2502 67.6162 45.2502 63C45.2502 58.3806 45.5271 53.9691 45.9349 49.6875H80.0656C80.4734 53.9691 80.7502 58.3806 80.7502 63C80.7502 63.732 80.7476 64.3926 80.7325 65.1147C80.7326 67.5654 82.728 69.5522 85.1786 69.5522C87.6293 69.5523 89.616 67.5655 89.6161 65.1147C89.6117 64.3938 89.6203 63.6229 89.625 63C89.625 58.4197 89.4116 53.9794 89.0357 49.6875H114.508C115.603 53.9487 116.25 58.3918 116.25 63C116.25 63.7114 116.237 64.4111 116.206 65.1147C116.206 67.5654 118.201 69.5522 120.652 69.5522C123.102 69.5523 125.089 67.5655 125.089 65.1147C125.111 64.4068 125.125 63.7137 125.125 63C125.125 28.7418 97.2584 0.874965 63.0002 0.875ZM63.0002 9.75C64.5048 9.75 66.2433 10.5116 68.3564 12.8354C70.4696 15.1593 72.6729 18.9411 74.5447 23.8079C76.3739 28.5638 77.894 34.3482 78.9735 40.8125H47.027C48.1065 34.3482 49.6266 28.5638 51.4558 23.8079C53.3276 18.9411 55.5309 15.1593 57.644 12.8354C59.7571 10.5116 61.4956 9.75 63.0002 9.75ZM47.2783 12.1074C45.7533 14.6379 44.3841 17.4621 43.1701 20.6184C40.932 26.4377 39.1866 33.2825 38.022 40.8125H14.6211C20.8858 27.1435 32.7188 16.5846 47.2783 12.1074ZM78.7135 12.1074C93.2766 16.5832 105.114 27.141 111.379 40.8125H87.9698C86.8052 33.2826 85.0684 26.4376 82.8303 20.6184C81.6158 17.4608 80.2392 14.6387 78.7135 12.1074ZM11.4836 49.6875H36.9646C36.5888 53.9794 36.3752 58.4196 36.3752 63C36.3752 67.5772 36.5891 72.0223 36.9646 76.3125H11.4836C10.3898 72.0528 9.75022 67.6063 9.75022 63C9.75022 58.3922 10.3892 53.9484 11.4836 49.6875ZM14.6211 85.1875H38.022C39.1866 92.723 40.9312 99.5689 43.1701 105.39C44.3825 108.542 45.7472 111.373 47.2696 113.901C32.713 109.422 20.8844 98.8551 14.6211 85.1875Z" fill="#00F5A0"/>
<path d="M120.774 78.4359C119.654 78.3761 118.466 78.7814 117.42 79.8573L101.776 95.5012L86.1324 79.8573C84.3886 78.0632 81.5106 78.0628 79.7882 79.84C78.0667 81.6179 78.1031 84.4253 79.8574 86.1322L95.5014 101.776L79.8574 117.42C78.0634 119.164 78.063 122.051 79.8397 123.773C81.6176 125.494 84.425 125.449 86.1319 123.695L101.776 108.051L117.42 123.695C121.603 127.998 127.998 121.603 123.695 117.42L108.051 101.776L123.695 86.1321C126.922 82.9946 124.136 78.6152 120.774 78.4359Z" fill="#00F5A0"/>
</svg>
