<svg width="350" height="529" viewBox="0 0 350 529" fill="none" xmlns="http://www.w3.org/2000/svg">
<g clip-path="url(#clip0_1798_242)">
<rect width="350" height="529" fill="#FD8902"/>
<rect x="39.2852" y="24.207" width="273.254" height="36.7627" rx="8.5" fill="white" stroke="black" stroke-width="3"/>
<path d="M81.6534 35.5879H84.8934V49.5879H81.6534V35.5879ZM75.2934 49.5879H72.0534V35.5879H75.2934V49.5879ZM81.8934 43.8479H75.0534V41.1079H81.8934V43.8479ZM94.801 49.8279C93.6944 49.8279 92.6677 49.6479 91.721 49.2879C90.7877 48.9279 89.9744 48.4212 89.281 47.7679C88.601 47.1146 88.0677 46.3479 87.681 45.4679C87.3077 44.5879 87.121 43.6279 87.121 42.5879C87.121 41.5479 87.3077 40.5879 87.681 39.7079C88.0677 38.8279 88.6077 38.0612 89.301 37.4079C89.9944 36.7546 90.8077 36.2479 91.741 35.8879C92.6744 35.5279 93.6877 35.3479 94.781 35.3479C95.8877 35.3479 96.901 35.5279 97.821 35.8879C98.7544 36.2479 99.561 36.7546 100.241 37.4079C100.934 38.0612 101.474 38.8279 101.861 39.7079C102.248 40.5746 102.441 41.5346 102.441 42.5879C102.441 43.6279 102.248 44.5946 101.861 45.4879C101.474 46.3679 100.934 47.1346 100.241 47.7879C99.561 48.4279 98.7544 48.9279 97.821 49.2879C96.901 49.6479 95.8944 49.8279 94.801 49.8279ZM94.781 47.0679C95.4077 47.0679 95.981 46.9612 96.501 46.7479C97.0344 46.5346 97.501 46.2279 97.901 45.8279C98.301 45.4279 98.6077 44.9546 98.821 44.4079C99.0477 43.8612 99.161 43.2546 99.161 42.5879C99.161 41.9212 99.0477 41.3146 98.821 40.7679C98.6077 40.2212 98.301 39.7479 97.901 39.3479C97.5144 38.9479 97.0544 38.6412 96.521 38.4279C95.9877 38.2146 95.4077 38.1079 94.781 38.1079C94.1544 38.1079 93.5744 38.2146 93.041 38.4279C92.521 38.6412 92.061 38.9479 91.661 39.3479C91.261 39.7479 90.9477 40.2212 90.721 40.7679C90.5077 41.3146 90.401 41.9212 90.401 42.5879C90.401 43.2412 90.5077 43.8479 90.721 44.4079C90.9477 44.9546 91.2544 45.4279 91.641 45.8279C92.041 46.2279 92.5077 46.5346 93.041 46.7479C93.5744 46.9612 94.1544 47.0679 94.781 47.0679ZM104.637 49.5879V35.5879H111.157C112.784 35.5879 114.05 35.9012 114.957 36.5279C115.864 37.1546 116.317 38.0479 116.317 39.2079C116.317 40.3546 115.89 41.2479 115.037 41.8879C114.184 42.5146 113.05 42.8279 111.637 42.8279L112.017 41.9879C113.59 41.9879 114.81 42.3012 115.677 42.9279C116.544 43.5546 116.977 44.4612 116.977 45.6479C116.977 46.8746 116.51 47.8412 115.577 48.5479C114.657 49.2412 113.31 49.5879 111.537 49.5879H104.637ZM107.857 47.1879H111.417C112.164 47.1879 112.73 47.0412 113.117 46.7479C113.504 46.4546 113.697 46.0012 113.697 45.3879C113.697 44.8012 113.504 44.3679 113.117 44.0879C112.73 43.7946 112.164 43.6479 111.417 43.6479H107.857V47.1879ZM107.857 41.3879H110.877C111.584 41.3879 112.117 41.2479 112.477 40.9679C112.837 40.6746 113.017 40.2479 113.017 39.6879C113.017 39.1279 112.837 38.7079 112.477 38.4279C112.117 38.1346 111.584 37.9879 110.877 37.9879H107.857V41.3879ZM126.019 40.1879C127.713 40.1879 129.019 40.5679 129.939 41.3279C130.859 42.0746 131.319 43.2012 131.319 44.7079C131.319 46.3079 130.806 47.5212 129.779 48.3479C128.766 49.1746 127.359 49.5879 125.559 49.5879H119.239V35.5879H122.459V40.1879H126.019ZM125.379 47.1879C126.206 47.1879 126.859 46.9812 127.339 46.5679C127.819 46.1546 128.059 45.5546 128.059 44.7679C128.059 43.9946 127.819 43.4412 127.339 43.1079C126.873 42.7612 126.219 42.5879 125.379 42.5879H122.459V47.1879H125.379ZM133.099 49.5879V35.5879H136.319V49.5879H133.099ZM139.506 49.5879V35.5879H142.726V44.7079L149.406 35.5879H152.446V49.5879H149.246V40.4879L142.566 49.5879H139.506ZM145.966 34.6879C144.632 34.6879 143.652 34.4212 143.026 33.8879C142.412 33.3546 142.099 32.6012 142.086 31.6279H144.306C144.319 32.1079 144.459 32.4746 144.726 32.7279C145.006 32.9679 145.419 33.0879 145.966 33.0879C146.499 33.0879 146.906 32.9679 147.186 32.7279C147.466 32.4746 147.612 32.1079 147.626 31.6279H149.846C149.832 32.6012 149.512 33.3546 148.886 33.8879C148.259 34.4212 147.286 34.6879 145.966 34.6879ZM160.996 49.5879V35.5879H164.216V44.7079L170.896 35.5879H173.936V49.5879H170.736V40.4879L164.056 49.5879H160.996ZM186.721 35.5879H189.961V49.5879H186.721V35.5879ZM180.361 49.5879H177.121V35.5879H180.361V49.5879ZM186.961 43.8479H180.121V41.1079H186.961V43.8479ZM196.189 49.5879V37.4879L196.929 38.2279H191.729V35.5879H203.869V38.2279H198.669L199.389 37.4879V49.5879H196.189ZM208.583 41.2279H215.323V43.7479H208.583V41.2279ZM208.823 46.9879H216.443V49.5879H205.603V35.5879H216.183V38.1879H208.823V46.9879ZM228.36 35.5879H231.6V49.5879H228.36V35.5879ZM222 49.5879H218.76V35.5879H222V49.5879ZM228.6 43.8479H221.76V41.1079H228.6V43.8479ZM241.428 49.8279C240.348 49.8279 239.341 49.6546 238.408 49.3079C237.488 48.9479 236.688 48.4412 236.008 47.7879C235.328 47.1346 234.795 46.3679 234.408 45.4879C234.035 44.6079 233.848 43.6412 233.848 42.5879C233.848 41.5346 234.035 40.5679 234.408 39.6879C234.795 38.8079 235.328 38.0412 236.008 37.3879C236.701 36.7346 237.508 36.2346 238.428 35.8879C239.348 35.5279 240.355 35.3479 241.448 35.3479C242.661 35.3479 243.755 35.5612 244.728 35.9879C245.715 36.4012 246.541 37.0146 247.208 37.8279L245.128 39.7479C244.648 39.2012 244.115 38.7946 243.528 38.5279C242.941 38.2479 242.301 38.1079 241.608 38.1079C240.955 38.1079 240.355 38.2146 239.808 38.4279C239.261 38.6412 238.788 38.9479 238.388 39.3479C237.988 39.7479 237.675 40.2212 237.448 40.7679C237.235 41.3146 237.128 41.9212 237.128 42.5879C237.128 43.2546 237.235 43.8612 237.448 44.4079C237.675 44.9546 237.988 45.4279 238.388 45.8279C238.788 46.2279 239.261 46.5346 239.808 46.7479C240.355 46.9612 240.955 47.0679 241.608 47.0679C242.301 47.0679 242.941 46.9346 243.528 46.6679C244.115 46.3879 244.648 45.9679 245.128 45.4079L247.208 47.3279C246.541 48.1412 245.715 48.7612 244.728 49.1879C243.755 49.6146 242.655 49.8279 241.428 49.8279ZM249.02 49.5879V35.5879H252.24V44.7079L258.92 35.5879H261.96V49.5879H258.76V40.4879L252.08 49.5879H249.02ZM265.146 49.5879V35.5879H271.666C273.292 35.5879 274.559 35.9012 275.466 36.5279C276.372 37.1546 276.826 38.0479 276.826 39.2079C276.826 40.3546 276.399 41.2479 275.546 41.8879C274.692 42.5146 273.559 42.8279 272.146 42.8279L272.526 41.9879C274.099 41.9879 275.319 42.3012 276.186 42.9279C277.052 43.5546 277.486 44.4612 277.486 45.6479C277.486 46.8746 277.019 47.8412 276.086 48.5479C275.166 49.2412 273.819 49.5879 272.046 49.5879H265.146ZM268.366 47.1879H271.926C272.672 47.1879 273.239 47.0412 273.626 46.7479C274.012 46.4546 274.206 46.0012 274.206 45.3879C274.206 44.8012 274.012 44.3679 273.626 44.0879C273.239 43.7946 272.672 43.6479 271.926 43.6479H268.366V47.1879ZM268.366 41.3879H271.386C272.092 41.3879 272.626 41.2479 272.986 40.9679C273.346 40.6746 273.526 40.2479 273.526 39.6879C273.526 39.1279 273.346 38.7079 272.986 38.4279C272.626 38.1346 272.092 37.9879 271.386 37.9879H268.366V41.3879ZM279.668 44.7279L279.048 35.5879H282.768L282.148 44.7279H279.668ZM280.908 49.7479C280.348 49.7479 279.888 49.5679 279.528 49.2079C279.168 48.8479 278.988 48.4212 278.988 47.9279C278.988 47.4212 279.168 47.0012 279.528 46.6679C279.888 46.3212 280.348 46.1479 280.908 46.1479C281.481 46.1479 281.941 46.3212 282.288 46.6679C282.648 47.0012 282.828 47.4212 282.828 47.9279C282.828 48.4212 282.648 48.8479 282.288 49.2079C281.941 49.5679 281.481 49.7479 280.908 49.7479Z" fill="black"/>
<path d="M59.9271 423.107C60.5151 423.293 60.9724 423.597 61.2991 424.017C61.6351 424.427 61.8031 424.913 61.8031 425.473C61.8031 426.061 61.6117 426.574 61.2291 427.013C60.8464 427.442 60.3331 427.773 59.6891 428.007C59.0544 428.24 58.3591 428.357 57.6031 428.357C56.9497 428.357 56.2917 428.268 55.6291 428.091C54.9757 427.904 54.3691 427.629 53.8091 427.265L54.3971 425.935C54.8264 426.224 55.3024 426.448 55.8251 426.607C56.3477 426.756 56.8657 426.831 57.3791 426.831C58.1164 426.831 58.7277 426.686 59.2131 426.397C59.7077 426.107 59.9551 425.711 59.9551 425.207C59.9551 424.777 59.7777 424.451 59.4231 424.227C59.0684 424.003 58.5784 423.891 57.9531 423.891H55.6711V422.463H57.8131C58.3544 422.463 58.7791 422.351 59.0871 422.127C59.3951 421.903 59.5491 421.599 59.5491 421.217C59.5491 420.759 59.3391 420.405 58.9191 420.153C58.5084 419.901 57.9811 419.775 57.3371 419.775C56.8984 419.775 56.4457 419.84 55.9791 419.971C55.5124 420.092 55.0737 420.274 54.6631 420.517L54.0891 419.047C54.5931 418.776 55.1251 418.575 55.6851 418.445C56.2544 418.305 56.8191 418.235 57.3791 418.235C58.1071 418.235 58.7744 418.347 59.3811 418.571C59.9971 418.795 60.4871 419.117 60.8511 419.537C61.2151 419.947 61.3971 420.433 61.3971 420.993C61.3971 421.478 61.2664 421.903 61.0051 422.267C60.7437 422.631 60.3844 422.911 59.9271 423.107ZM66.4569 420.657C67.5582 420.657 68.3982 420.923 68.9769 421.455C69.5649 421.977 69.8589 422.771 69.8589 423.835V428.217H68.2069V427.307C67.9922 427.633 67.6842 427.885 67.2829 428.063C66.8909 428.231 66.4149 428.315 65.8549 428.315C65.2949 428.315 64.8049 428.221 64.3849 428.035C63.9649 427.839 63.6382 427.573 63.4049 427.237C63.1809 426.891 63.0689 426.504 63.0689 426.075C63.0689 425.403 63.3162 424.866 63.8109 424.465C64.3149 424.054 65.1035 423.849 66.1769 423.849H68.1089V423.737C68.1089 423.214 67.9502 422.813 67.6329 422.533C67.3249 422.253 66.8629 422.113 66.2469 422.113C65.8269 422.113 65.4115 422.178 65.0009 422.309C64.5995 422.439 64.2589 422.621 63.9789 422.855L63.2929 421.581C63.6849 421.282 64.1562 421.053 64.7069 420.895C65.2575 420.736 65.8409 420.657 66.4569 420.657ZM66.2189 427.041C66.6575 427.041 67.0449 426.943 67.3809 426.747C67.7262 426.541 67.9689 426.252 68.1089 425.879V425.011H66.3029C65.2949 425.011 64.7909 425.342 64.7909 426.005C64.7909 426.322 64.9169 426.574 65.1689 426.761C65.4209 426.947 65.7709 427.041 66.2189 427.041ZM79.5055 422.463C80.4109 422.575 81.1015 422.883 81.5775 423.387C82.0535 423.891 82.2915 424.521 82.2915 425.277C82.2915 425.846 82.1469 426.364 81.8575 426.831C81.5682 427.297 81.1295 427.671 80.5415 427.951C79.9629 428.221 79.2535 428.357 78.4135 428.357C77.7135 428.357 77.0369 428.259 76.3835 428.063C75.7395 427.857 75.1889 427.577 74.7315 427.223L75.5155 425.809C75.8702 426.107 76.2995 426.345 76.8035 426.523C77.3169 426.691 77.8442 426.775 78.3855 426.775C79.0295 426.775 79.5335 426.644 79.8975 426.383C80.2709 426.112 80.4575 425.748 80.4575 425.291C80.4575 424.833 80.2802 424.479 79.9255 424.227C79.5802 423.965 79.0482 423.835 78.3295 423.835H77.4335V422.589L79.6595 419.943H75.2075V418.417H81.8855V419.635L79.5055 422.463ZM95.8911 426.733V429.883H94.2531V428.217H88.4851V429.883H86.8611V426.733H87.2111C87.6871 426.714 88.0091 426.411 88.1771 425.823C88.3544 425.225 88.4711 424.385 88.5271 423.303L88.6251 420.741H94.7851V426.733H95.8911ZM90.1231 423.429C90.0858 424.287 90.0158 424.987 89.9131 425.529C89.8104 426.07 89.6238 426.471 89.3531 426.733H93.0351V422.225H90.1651L90.1231 423.429ZM97.4541 420.741H99.2041V423.779H102.97V420.741H104.72V428.217H102.97V425.263H99.2041V428.217H97.4541V420.741ZM113.379 420.741V428.217H111.811V425.963H109.837L108.311 428.217H106.435L108.199 425.725C107.658 425.538 107.243 425.253 106.953 424.871C106.673 424.479 106.533 423.998 106.533 423.429C106.533 422.57 106.837 421.907 107.443 421.441C108.05 420.974 108.885 420.741 109.949 420.741H113.379ZM110.005 422.211C108.876 422.211 108.311 422.635 108.311 423.485C108.311 424.325 108.857 424.745 109.949 424.745H111.811V422.211H110.005ZM126.771 420.741V428.217H125.035V422.225H121.353V428.217H119.603V420.741H126.771ZM132.464 428.315C131.708 428.315 131.026 428.151 130.42 427.825C129.813 427.498 129.337 427.045 128.992 426.467C128.656 425.879 128.488 425.216 128.488 424.479C128.488 423.741 128.656 423.083 128.992 422.505C129.337 421.926 129.813 421.473 130.42 421.147C131.026 420.82 131.708 420.657 132.464 420.657C133.229 420.657 133.915 420.82 134.522 421.147C135.128 421.473 135.6 421.926 135.936 422.505C136.281 423.083 136.454 423.741 136.454 424.479C136.454 425.216 136.281 425.879 135.936 426.467C135.6 427.045 135.128 427.498 134.522 427.825C133.915 428.151 133.229 428.315 132.464 428.315ZM132.464 426.817C133.108 426.817 133.64 426.602 134.06 426.173C134.48 425.743 134.69 425.179 134.69 424.479C134.69 423.779 134.48 423.214 134.06 422.785C133.64 422.355 133.108 422.141 132.464 422.141C131.82 422.141 131.288 422.355 130.868 422.785C130.457 423.214 130.252 423.779 130.252 424.479C130.252 425.179 130.457 425.743 130.868 426.173C131.288 426.602 131.82 426.817 132.464 426.817ZM141.291 425.221H139.933V428.217H138.183V420.741H139.933V423.765H141.333L143.545 420.741H145.421L142.705 424.339L145.603 428.217H143.545L141.291 425.221ZM149.486 420.657C150.588 420.657 151.428 420.923 152.006 421.455C152.594 421.977 152.888 422.771 152.888 423.835V428.217H151.236V427.307C151.022 427.633 150.714 427.885 150.312 428.063C149.92 428.231 149.444 428.315 148.884 428.315C148.324 428.315 147.834 428.221 147.414 428.035C146.994 427.839 146.668 427.573 146.434 427.237C146.21 426.891 146.098 426.504 146.098 426.075C146.098 425.403 146.346 424.866 146.84 424.465C147.344 424.054 148.133 423.849 149.206 423.849H151.138V423.737C151.138 423.214 150.98 422.813 150.662 422.533C150.354 422.253 149.892 422.113 149.276 422.113C148.856 422.113 148.441 422.178 148.03 422.309C147.629 422.439 147.288 422.621 147.008 422.855L146.322 421.581C146.714 421.282 147.186 421.053 147.736 420.895C148.287 420.736 148.87 420.657 149.486 420.657ZM149.248 427.041C149.687 427.041 150.074 426.943 150.41 426.747C150.756 426.541 150.998 426.252 151.138 425.879V425.011H149.332C148.324 425.011 147.82 425.342 147.82 426.005C147.82 426.322 147.946 426.574 148.198 426.761C148.45 426.947 148.8 427.041 149.248 427.041ZM162.152 425.221H160.892V428.217H159.156V425.221H157.896L156.076 428.217H154.004L156.454 424.353L154.186 420.741H156.048L157.868 423.765H159.156V420.741H160.892V423.765H162.166L164 420.741H165.862L163.594 424.353L166.058 428.217H163.972L162.152 425.221ZM174.112 424.521C174.112 424.642 174.103 424.815 174.084 425.039H168.218C168.321 425.589 168.587 426.028 169.016 426.355C169.455 426.672 169.996 426.831 170.64 426.831C171.462 426.831 172.138 426.56 172.67 426.019L173.608 427.097C173.272 427.498 172.848 427.801 172.334 428.007C171.821 428.212 171.242 428.315 170.598 428.315C169.777 428.315 169.054 428.151 168.428 427.825C167.803 427.498 167.318 427.045 166.972 426.467C166.636 425.879 166.468 425.216 166.468 424.479C166.468 423.751 166.632 423.097 166.958 422.519C167.294 421.931 167.756 421.473 168.344 421.147C168.932 420.82 169.595 420.657 170.332 420.657C171.06 420.657 171.709 420.82 172.278 421.147C172.857 421.464 173.305 421.917 173.622 422.505C173.949 423.083 174.112 423.755 174.112 424.521ZM170.332 422.057C169.772 422.057 169.296 422.225 168.904 422.561C168.522 422.887 168.288 423.326 168.204 423.877H172.446C172.372 423.335 172.143 422.897 171.76 422.561C171.378 422.225 170.902 422.057 170.332 422.057ZM183.376 428.217V423.261L180.856 427.433H180.1L177.622 423.247V428.217H176.026V420.741H177.86L180.52 425.417L183.306 420.741H184.944L184.958 428.217H183.376ZM187.852 425.991C188.178 425.991 188.449 426.098 188.664 426.313C188.878 426.527 188.986 426.807 188.986 427.153C188.986 427.302 188.962 427.461 188.916 427.629C188.878 427.787 188.794 428.03 188.664 428.357L187.95 430.331H186.816L187.376 428.189C187.17 428.105 187.007 427.974 186.886 427.797C186.774 427.61 186.718 427.395 186.718 427.153C186.718 426.807 186.825 426.527 187.04 426.313C187.254 426.098 187.525 425.991 187.852 425.991ZM197.701 425.221H196.343V428.217H194.593V420.741H196.343V423.765H197.743L199.955 420.741H201.831L199.115 424.339L202.013 428.217H199.955L197.701 425.221ZM205.896 420.657C206.998 420.657 207.838 420.923 208.416 421.455C209.004 421.977 209.298 422.771 209.298 423.835V428.217H207.646V427.307C207.432 427.633 207.124 427.885 206.722 428.063C206.33 428.231 205.854 428.315 205.294 428.315C204.734 428.315 204.244 428.221 203.824 428.035C203.404 427.839 203.078 427.573 202.844 427.237C202.62 426.891 202.508 426.504 202.508 426.075C202.508 425.403 202.756 424.866 203.25 424.465C203.754 424.054 204.543 423.849 205.616 423.849H207.548V423.737C207.548 423.214 207.39 422.813 207.072 422.533C206.764 422.253 206.302 422.113 205.686 422.113C205.266 422.113 204.851 422.178 204.44 422.309C204.039 422.439 203.698 422.621 203.418 422.855L202.732 421.581C203.124 421.282 203.596 421.053 204.146 420.895C204.697 420.736 205.28 420.657 205.896 420.657ZM205.658 427.041C206.097 427.041 206.484 426.943 206.82 426.747C207.166 426.541 207.408 426.252 207.548 425.879V425.011H205.742C204.734 425.011 204.23 425.342 204.23 426.005C204.23 426.322 204.356 426.574 204.608 426.761C204.86 426.947 205.21 427.041 205.658 427.041ZM214.572 425.221H213.214V428.217H211.464V420.741H213.214V423.765H214.614L216.826 420.741H218.702L215.986 424.339L218.884 428.217H216.826L214.572 425.221ZM231.043 420.741L227.543 428.819C227.217 429.631 226.82 430.2 226.353 430.527C225.887 430.863 225.322 431.031 224.659 431.031C224.286 431.031 223.917 430.97 223.553 430.849C223.189 430.727 222.891 430.559 222.657 430.345L223.357 429.057C223.525 429.215 223.721 429.341 223.945 429.435C224.179 429.528 224.412 429.575 224.645 429.575C224.953 429.575 225.205 429.495 225.401 429.337C225.607 429.178 225.793 428.912 225.961 428.539L226.087 428.245L222.825 420.741H224.645L226.997 426.271L229.363 420.741H231.043ZM237.677 424.325C238.601 424.605 239.063 425.202 239.063 426.117C239.063 426.789 238.811 427.307 238.307 427.671C237.803 428.035 237.056 428.217 236.067 428.217H232.259V420.741H235.913C236.827 420.741 237.541 420.909 238.055 421.245C238.568 421.581 238.825 422.057 238.825 422.673C238.825 423.055 238.722 423.387 238.517 423.667C238.321 423.947 238.041 424.166 237.677 424.325ZM233.925 423.863H235.759C236.664 423.863 237.117 423.55 237.117 422.925C237.117 422.318 236.664 422.015 235.759 422.015H233.925V423.863ZM235.927 426.943C236.888 426.943 237.369 426.63 237.369 426.005C237.369 425.678 237.257 425.435 237.033 425.277C236.809 425.109 236.459 425.025 235.983 425.025H233.925V426.943H235.927ZM247.927 424.521C247.927 424.642 247.917 424.815 247.899 425.039H242.033C242.135 425.589 242.401 426.028 242.831 426.355C243.269 426.672 243.811 426.831 244.455 426.831C245.276 426.831 245.953 426.56 246.485 426.019L247.423 427.097C247.087 427.498 246.662 427.801 246.149 428.007C245.635 428.212 245.057 428.315 244.413 428.315C243.591 428.315 242.868 428.151 242.243 427.825C241.617 427.498 241.132 427.045 240.787 426.467C240.451 425.879 240.283 425.216 240.283 424.479C240.283 423.751 240.446 423.097 240.773 422.519C241.109 421.931 241.571 421.473 242.159 421.147C242.747 420.82 243.409 420.657 244.147 420.657C244.875 420.657 245.523 420.82 246.093 421.147C246.671 421.464 247.119 421.917 247.437 422.505C247.763 423.083 247.927 423.755 247.927 424.521ZM244.147 422.057C243.587 422.057 243.111 422.225 242.719 422.561C242.336 422.887 242.103 423.326 242.019 423.877H246.261C246.186 423.335 245.957 422.897 245.575 422.561C245.192 422.225 244.716 422.057 244.147 422.057ZM256.521 420.741V428.217H254.771V422.225H251.971L251.901 423.709C251.854 424.698 251.761 425.529 251.621 426.201C251.49 426.863 251.262 427.391 250.935 427.783C250.618 428.165 250.179 428.357 249.619 428.357C249.358 428.357 249.036 428.305 248.653 428.203L248.737 426.733C248.868 426.761 248.98 426.775 249.073 426.775C249.428 426.775 249.694 426.635 249.871 426.355C250.048 426.065 250.16 425.725 250.207 425.333C250.263 424.931 250.31 424.362 250.347 423.625L250.473 420.741H256.521ZM258.878 420.741H260.628V425.669L264.758 420.741H266.354V428.217H264.604V423.289L260.488 428.217H258.878V420.741ZM275.05 420.741V428.217H273.3V425.319C272.581 425.664 271.83 425.837 271.046 425.837C270.085 425.837 269.347 425.617 268.834 425.179C268.321 424.731 268.064 424.049 268.064 423.135V420.741H269.814V423.023C269.814 423.499 269.954 423.853 270.234 424.087C270.514 424.32 270.911 424.437 271.424 424.437C272.077 424.437 272.703 424.297 273.3 424.017V420.741H275.05ZM277.403 420.741H279.153V425.669L283.283 420.741H284.879V428.217H283.129V423.289L279.013 428.217H277.403V420.741ZM293.155 422.225H290.537V428.217H288.787V422.225H286.155V420.741H293.155V422.225ZM298.177 423.205C299.129 423.205 299.857 423.419 300.361 423.849C300.874 424.278 301.131 424.885 301.131 425.669C301.131 426.49 300.851 427.125 300.291 427.573C299.731 428.021 298.942 428.24 297.925 428.231L294.425 428.217V420.741H296.175V423.191L298.177 423.205ZM297.771 426.943C298.284 426.952 298.676 426.845 298.947 426.621C299.217 426.397 299.353 426.07 299.353 425.641C299.353 425.221 299.222 424.913 298.961 424.717C298.699 424.521 298.303 424.418 297.771 424.409L296.175 424.395V426.929L297.771 426.943ZM53.8839 439.225H51.2659V445.217H49.5159V439.225H46.8839V437.741H53.8839V439.225ZM60.5713 441.325C61.4953 441.605 61.9573 442.202 61.9573 443.117C61.9573 443.789 61.7053 444.307 61.2013 444.671C60.6973 445.035 59.9506 445.217 58.9613 445.217H55.1533V437.741H58.8073C59.722 437.741 60.436 437.909 60.9493 438.245C61.4626 438.581 61.7193 439.057 61.7193 439.673C61.7193 440.055 61.6166 440.387 61.4113 440.667C61.2153 440.947 60.9353 441.166 60.5713 441.325ZM56.8193 440.863H58.6533C59.5586 440.863 60.0113 440.55 60.0113 439.925C60.0113 439.318 59.5586 439.015 58.6533 439.015H56.8193V440.863ZM58.8213 443.943C59.7826 443.943 60.2633 443.63 60.2633 443.005C60.2633 442.678 60.1513 442.435 59.9273 442.277C59.7033 442.109 59.3533 442.025 58.8773 442.025H56.8193V443.943H58.8213ZM67.1533 445.315C66.3973 445.315 65.7159 445.151 65.1093 444.825C64.5026 444.498 64.0266 444.045 63.6813 443.467C63.3453 442.879 63.1773 442.216 63.1773 441.479C63.1773 440.741 63.3453 440.083 63.6813 439.505C64.0266 438.926 64.5026 438.473 65.1093 438.147C65.7159 437.82 66.3973 437.657 67.1533 437.657C67.9186 437.657 68.6046 437.82 69.2113 438.147C69.8179 438.473 70.2893 438.926 70.6253 439.505C70.9706 440.083 71.1433 440.741 71.1433 441.479C71.1433 442.216 70.9706 442.879 70.6253 443.467C70.2893 444.045 69.8179 444.498 69.2113 444.825C68.6046 445.151 67.9186 445.315 67.1533 445.315ZM67.1533 443.817C67.7973 443.817 68.3293 443.602 68.7493 443.173C69.1693 442.743 69.3793 442.179 69.3793 441.479C69.3793 440.779 69.1693 440.214 68.7493 439.785C68.3293 439.355 67.7973 439.141 67.1533 439.141C66.5093 439.141 65.9773 439.355 65.5573 439.785C65.1466 440.214 64.9413 440.779 64.9413 441.479C64.9413 442.179 65.1466 442.743 65.5573 443.173C65.9773 443.602 66.5093 443.817 67.1533 443.817ZM72.872 437.741H74.622V442.669L78.752 437.741H80.348V445.217H78.598V440.289L74.482 445.217H72.872V437.741ZM76.498 436.859C75.742 436.859 75.1634 436.686 74.762 436.341C74.37 435.986 74.1694 435.473 74.16 434.801H75.322C75.3314 435.137 75.434 435.403 75.63 435.599C75.8354 435.795 76.12 435.893 76.484 435.893C76.8387 435.893 77.1187 435.795 77.324 435.599C77.5387 435.403 77.6507 435.137 77.66 434.801H78.85C78.8407 435.473 78.6354 435.986 78.234 436.341C77.8327 436.686 77.254 436.859 76.498 436.859ZM94.5513 443.733V446.883H92.9133V445.217H87.1453V446.883H85.5213V443.733H85.8713C86.3473 443.714 86.6693 443.411 86.8373 442.823C87.0146 442.225 87.1313 441.385 87.1873 440.303L87.2853 437.741H93.4453V443.733H94.5513ZM88.7833 440.429C88.7459 441.287 88.6759 441.987 88.5733 442.529C88.4706 443.07 88.2839 443.471 88.0133 443.733H91.6953V439.225H88.8253L88.7833 440.429ZM99.4462 445.315C98.6902 445.315 98.0089 445.151 97.4022 444.825C96.7956 444.498 96.3196 444.045 95.9742 443.467C95.6382 442.879 95.4702 442.216 95.4702 441.479C95.4702 440.741 95.6382 440.083 95.9742 439.505C96.3196 438.926 96.7956 438.473 97.4022 438.147C98.0089 437.82 98.6902 437.657 99.4462 437.657C100.212 437.657 100.898 437.82 101.504 438.147C102.111 438.473 102.582 438.926 102.918 439.505C103.264 440.083 103.436 440.741 103.436 441.479C103.436 442.216 103.264 442.879 102.918 443.467C102.582 444.045 102.111 444.498 101.504 444.825C100.898 445.151 100.212 445.315 99.4462 445.315ZM99.4462 443.817C100.09 443.817 100.622 443.602 101.042 443.173C101.462 442.743 101.672 442.179 101.672 441.479C101.672 440.779 101.462 440.214 101.042 439.785C100.622 439.355 100.09 439.141 99.4462 439.141C98.8022 439.141 98.2702 439.355 97.8502 439.785C97.4396 440.214 97.2342 440.779 97.2342 441.479C97.2342 442.179 97.4396 442.743 97.8502 443.173C98.2702 443.602 98.8022 443.817 99.4462 443.817ZM109.595 445.217L107.677 442.627L105.745 445.217H103.813L106.725 441.423L103.939 437.741H105.885L107.719 440.191L109.553 437.741H111.443L108.643 441.395L111.569 445.217H109.595ZM115.907 445.315C115.151 445.315 114.47 445.151 113.863 444.825C113.257 444.498 112.781 444.045 112.435 443.467C112.099 442.879 111.931 442.216 111.931 441.479C111.931 440.741 112.099 440.083 112.435 439.505C112.781 438.926 113.257 438.473 113.863 438.147C114.47 437.82 115.151 437.657 115.907 437.657C116.673 437.657 117.359 437.82 117.965 438.147C118.572 438.473 119.043 438.926 119.379 439.505C119.725 440.083 119.897 440.741 119.897 441.479C119.897 442.216 119.725 442.879 119.379 443.467C119.043 444.045 118.572 444.498 117.965 444.825C117.359 445.151 116.673 445.315 115.907 445.315ZM115.907 443.817C116.551 443.817 117.083 443.602 117.503 443.173C117.923 442.743 118.133 442.179 118.133 441.479C118.133 440.779 117.923 440.214 117.503 439.785C117.083 439.355 116.551 439.141 115.907 439.141C115.263 439.141 114.731 439.355 114.311 439.785C113.901 440.214 113.695 440.779 113.695 441.479C113.695 442.179 113.901 442.743 114.311 443.173C114.731 443.602 115.263 443.817 115.907 443.817ZM129.524 443.733V446.883H127.886V445.217H122.118V446.883H120.494V443.733H120.844C121.32 443.714 121.642 443.411 121.81 442.823C121.987 442.225 122.104 441.385 122.16 440.303L122.258 437.741H128.418V443.733H129.524ZM123.756 440.429C123.719 441.287 123.649 441.987 123.546 442.529C123.443 443.07 123.257 443.471 122.986 443.733H126.668V439.225H123.798L123.756 440.429ZM138.358 445.315C137.583 445.315 136.888 445.151 136.272 444.825C135.656 444.498 135.175 444.045 134.83 443.467C134.485 442.879 134.312 442.216 134.312 441.479C134.312 440.741 134.485 440.083 134.83 439.505C135.175 438.926 135.651 438.473 136.258 438.147C136.874 437.82 137.574 437.657 138.358 437.657C139.095 437.657 139.739 437.806 140.29 438.105C140.85 438.403 141.27 438.833 141.55 439.393L140.206 440.177C139.991 439.831 139.721 439.575 139.394 439.407C139.077 439.229 138.727 439.141 138.344 439.141C137.691 439.141 137.149 439.355 136.72 439.785C136.291 440.205 136.076 440.769 136.076 441.479C136.076 442.188 136.286 442.757 136.706 443.187C137.135 443.607 137.681 443.817 138.344 443.817C138.727 443.817 139.077 443.733 139.394 443.565C139.721 443.387 139.991 443.126 140.206 442.781L141.55 443.565C141.261 444.125 140.836 444.559 140.276 444.867C139.725 445.165 139.086 445.315 138.358 445.315ZM154.128 437.741V445.217H152.392V439.225H148.71V445.217H146.96V437.741H154.128ZM159.821 445.315C159.065 445.315 158.384 445.151 157.777 444.825C157.171 444.498 156.695 444.045 156.349 443.467C156.013 442.879 155.845 442.216 155.845 441.479C155.845 440.741 156.013 440.083 156.349 439.505C156.695 438.926 157.171 438.473 157.777 438.147C158.384 437.82 159.065 437.657 159.821 437.657C160.587 437.657 161.273 437.82 161.879 438.147C162.486 438.473 162.957 438.926 163.293 439.505C163.639 440.083 163.811 440.741 163.811 441.479C163.811 442.216 163.639 442.879 163.293 443.467C162.957 444.045 162.486 444.498 161.879 444.825C161.273 445.151 160.587 445.315 159.821 445.315ZM159.821 443.817C160.465 443.817 160.997 443.602 161.417 443.173C161.837 442.743 162.047 442.179 162.047 441.479C162.047 440.779 161.837 440.214 161.417 439.785C160.997 439.355 160.465 439.141 159.821 439.141C159.177 439.141 158.645 439.355 158.225 439.785C157.815 440.214 157.609 440.779 157.609 441.479C157.609 442.179 157.815 442.743 158.225 443.173C158.645 443.602 159.177 443.817 159.821 443.817ZM172.89 445.217V440.261L170.37 444.433H169.614L167.136 440.247V445.217H165.54V437.741H167.374L170.034 442.417L172.82 437.741H174.458L174.472 445.217H172.89ZM180.151 445.315C179.395 445.315 178.714 445.151 178.107 444.825C177.501 444.498 177.025 444.045 176.679 443.467C176.343 442.879 176.175 442.216 176.175 441.479C176.175 440.741 176.343 440.083 176.679 439.505C177.025 438.926 177.501 438.473 178.107 438.147C178.714 437.82 179.395 437.657 180.151 437.657C180.917 437.657 181.603 437.82 182.209 438.147C182.816 438.473 183.287 438.926 183.623 439.505C183.969 440.083 184.141 440.741 184.141 441.479C184.141 442.216 183.969 442.879 183.623 443.467C183.287 444.045 182.816 444.498 182.209 444.825C181.603 445.151 180.917 445.315 180.151 445.315ZM180.151 443.817C180.795 443.817 181.327 443.602 181.747 443.173C182.167 442.743 182.377 442.179 182.377 441.479C182.377 440.779 182.167 440.214 181.747 439.785C181.327 439.355 180.795 439.141 180.151 439.141C179.507 439.141 178.975 439.355 178.555 439.785C178.145 440.214 177.939 440.779 177.939 441.479C177.939 442.179 178.145 442.743 178.555 443.173C178.975 443.602 179.507 443.817 180.151 443.817ZM196.888 437.741V445.217H185.87V437.741H187.62V443.733H190.518V437.741H192.268V443.733H195.138V437.741H196.888ZM197.966 443.733V446.757H196.328V445.217H195.082V443.733H197.966ZM202.993 440.205C203.945 440.205 204.673 440.419 205.177 440.849C205.691 441.278 205.947 441.885 205.947 442.669C205.947 443.49 205.667 444.125 205.107 444.573C204.547 445.021 203.759 445.24 202.741 445.231L199.241 445.217V437.741H200.991V440.191L202.993 440.205ZM202.587 443.943C203.101 443.952 203.493 443.845 203.763 443.621C204.034 443.397 204.169 443.07 204.169 442.641C204.169 442.221 204.039 441.913 203.777 441.717C203.516 441.521 203.119 441.418 202.587 441.409L200.991 441.395V443.929L202.587 443.943ZM214.317 437.657C215.064 437.657 215.731 437.82 216.319 438.147C216.907 438.464 217.369 438.917 217.705 439.505C218.041 440.083 218.209 440.741 218.209 441.479C218.209 442.216 218.041 442.879 217.705 443.467C217.369 444.045 216.907 444.498 216.319 444.825C215.731 445.151 215.064 445.315 214.317 445.315C213.664 445.315 213.067 445.189 212.525 444.937C211.984 444.675 211.536 444.311 211.181 443.845C210.827 443.369 210.598 442.827 210.495 442.221H209.235V445.217H207.485V437.741H209.235V440.639H210.523C210.635 440.051 210.869 439.533 211.223 439.085C211.578 438.627 212.021 438.277 212.553 438.035C213.085 437.783 213.673 437.657 214.317 437.657ZM214.317 443.831C214.728 443.831 215.097 443.737 215.423 443.551C215.75 443.355 216.007 443.079 216.193 442.725C216.38 442.361 216.473 441.945 216.473 441.479C216.473 440.769 216.268 440.205 215.857 439.785C215.456 439.355 214.943 439.141 214.317 439.141C213.692 439.141 213.179 439.355 212.777 439.785C212.376 440.205 212.175 440.769 212.175 441.479C212.175 442.188 212.376 442.757 212.777 443.187C213.188 443.616 213.701 443.831 214.317 443.831ZM223.796 437.741H225.546V440.779H229.312V437.741H231.062V445.217H229.312V442.263H225.546V445.217H223.796V437.741ZM240.407 441.521C240.407 441.642 240.398 441.815 240.379 442.039H234.513C234.616 442.589 234.882 443.028 235.311 443.355C235.75 443.672 236.291 443.831 236.935 443.831C237.757 443.831 238.433 443.56 238.965 443.019L239.903 444.097C239.567 444.498 239.143 444.801 238.629 445.007C238.116 445.212 237.537 445.315 236.893 445.315C236.072 445.315 235.349 445.151 234.723 444.825C234.098 444.498 233.613 444.045 233.267 443.467C232.931 442.879 232.763 442.216 232.763 441.479C232.763 440.751 232.927 440.097 233.253 439.519C233.589 438.931 234.051 438.473 234.639 438.147C235.227 437.82 235.89 437.657 236.627 437.657C237.355 437.657 238.004 437.82 238.573 438.147C239.152 438.464 239.6 438.917 239.917 439.505C240.244 440.083 240.407 440.755 240.407 441.521ZM236.627 439.057C236.067 439.057 235.591 439.225 235.199 439.561C234.817 439.887 234.583 440.326 234.499 440.877H238.741C238.667 440.335 238.438 439.897 238.055 439.561C237.673 439.225 237.197 439.057 236.627 439.057ZM242.321 437.741H244.071V442.669L248.201 437.741H249.797V445.217H248.047V440.289L243.931 445.217H242.321V437.741ZM245.947 436.859C245.191 436.859 244.613 436.686 244.211 436.341C243.819 435.986 243.619 435.473 243.609 434.801H244.771C244.781 435.137 244.883 435.403 245.079 435.599C245.285 435.795 245.569 435.893 245.933 435.893C246.288 435.893 246.568 435.795 246.773 435.599C246.988 435.403 247.1 435.137 247.109 434.801H248.299C248.29 435.473 248.085 435.986 247.683 436.341C247.282 436.686 246.703 436.859 245.947 436.859ZM256.295 437.657C257.023 437.657 257.672 437.815 258.241 438.133C258.82 438.45 259.273 438.898 259.599 439.477C259.926 440.055 260.089 440.723 260.089 441.479C260.089 442.235 259.926 442.907 259.599 443.495C259.273 444.073 258.82 444.521 258.241 444.839C257.672 445.156 257.023 445.315 256.295 445.315C255.287 445.315 254.489 444.979 253.901 444.307V447.933H252.151V437.741H253.817V438.721C254.107 438.366 254.461 438.1 254.881 437.923C255.311 437.745 255.782 437.657 256.295 437.657ZM256.099 443.817C256.743 443.817 257.271 443.602 257.681 443.173C258.101 442.743 258.311 442.179 258.311 441.479C258.311 440.779 258.101 440.214 257.681 439.785C257.271 439.355 256.743 439.141 256.099 439.141C255.679 439.141 255.301 439.239 254.965 439.435C254.629 439.621 254.363 439.892 254.167 440.247C253.971 440.601 253.873 441.012 253.873 441.479C253.873 441.945 253.971 442.356 254.167 442.711C254.363 443.065 254.629 443.341 254.965 443.537C255.301 443.723 255.679 443.817 256.099 443.817ZM265.163 445.315C264.407 445.315 263.726 445.151 263.119 444.825C262.512 444.498 262.036 444.045 261.691 443.467C261.355 442.879 261.187 442.216 261.187 441.479C261.187 440.741 261.355 440.083 261.691 439.505C262.036 438.926 262.512 438.473 263.119 438.147C263.726 437.82 264.407 437.657 265.163 437.657C265.928 437.657 266.614 437.82 267.221 438.147C267.828 438.473 268.299 438.926 268.635 439.505C268.98 440.083 269.153 440.741 269.153 441.479C269.153 442.216 268.98 442.879 268.635 443.467C268.299 444.045 267.828 444.498 267.221 444.825C266.614 445.151 265.928 445.315 265.163 445.315ZM265.163 443.817C265.807 443.817 266.339 443.602 266.759 443.173C267.179 442.743 267.389 442.179 267.389 441.479C267.389 440.779 267.179 440.214 266.759 439.785C266.339 439.355 265.807 439.141 265.163 439.141C264.519 439.141 263.987 439.355 263.567 439.785C263.156 440.214 262.951 440.779 262.951 441.479C262.951 442.179 263.156 442.743 263.567 443.173C263.987 443.602 264.519 443.817 265.163 443.817ZM274.284 445.315C273.509 445.315 272.814 445.151 272.198 444.825C271.582 444.498 271.101 444.045 270.756 443.467C270.41 442.879 270.238 442.216 270.238 441.479C270.238 440.741 270.41 440.083 270.756 439.505C271.101 438.926 271.577 438.473 272.184 438.147C272.8 437.82 273.5 437.657 274.284 437.657C275.021 437.657 275.665 437.806 276.216 438.105C276.776 438.403 277.196 438.833 277.476 439.393L276.132 440.177C275.917 439.831 275.646 439.575 275.32 439.407C275.002 439.229 274.652 439.141 274.27 439.141C273.616 439.141 273.075 439.355 272.646 439.785C272.216 440.205 272.002 440.769 272.002 441.479C272.002 442.188 272.212 442.757 272.632 443.187C273.061 443.607 273.607 443.817 274.27 443.817C274.652 443.817 275.002 443.733 275.32 443.565C275.646 443.387 275.917 443.126 276.132 442.781L277.476 443.565C277.186 444.125 276.762 444.559 276.202 444.867C275.651 445.165 275.012 445.315 274.284 445.315ZM285.907 441.521C285.907 441.642 285.898 441.815 285.879 442.039H280.013C280.116 442.589 280.382 443.028 280.811 443.355C281.25 443.672 281.791 443.831 282.435 443.831C283.257 443.831 283.933 443.56 284.465 443.019L285.403 444.097C285.067 444.498 284.643 444.801 284.129 445.007C283.616 445.212 283.037 445.315 282.393 445.315C281.572 445.315 280.849 445.151 280.223 444.825C279.598 444.498 279.113 444.045 278.767 443.467C278.431 442.879 278.263 442.216 278.263 441.479C278.263 440.751 278.427 440.097 278.753 439.519C279.089 438.931 279.551 438.473 280.139 438.147C280.727 437.82 281.39 437.657 282.127 437.657C282.855 437.657 283.504 437.82 284.073 438.147C284.652 438.464 285.1 438.917 285.417 439.505C285.744 440.083 285.907 440.755 285.907 441.521ZM282.127 439.057C281.567 439.057 281.091 439.225 280.699 439.561C280.317 439.887 280.083 440.326 279.999 440.877H284.241C284.167 440.335 283.938 439.897 283.555 439.561C283.173 439.225 282.697 439.057 282.127 439.057ZM293.47 439.225H290.852V445.217H289.102V439.225H286.47V437.741H293.47V439.225ZM301.411 441.521C301.411 441.642 301.402 441.815 301.383 442.039H295.517C295.62 442.589 295.886 443.028 296.315 443.355C296.754 443.672 297.295 443.831 297.939 443.831C298.76 443.831 299.437 443.56 299.969 443.019L300.907 444.097C300.571 444.498 300.146 444.801 299.633 445.007C299.12 445.212 298.541 445.315 297.897 445.315C297.076 445.315 296.352 445.151 295.727 444.825C295.102 444.498 294.616 444.045 294.271 443.467C293.935 442.879 293.767 442.216 293.767 441.479C293.767 440.751 293.93 440.097 294.257 439.519C294.593 438.931 295.055 438.473 295.643 438.147C296.231 437.82 296.894 437.657 297.631 437.657C298.359 437.657 299.008 437.82 299.577 438.147C300.156 438.464 300.604 438.917 300.921 439.505C301.248 440.083 301.411 440.755 301.411 441.521ZM297.631 439.057C297.071 439.057 296.595 439.225 296.203 439.561C295.82 439.887 295.587 440.326 295.503 440.877H299.745C299.67 440.335 299.442 439.897 299.059 439.561C298.676 439.225 298.2 439.057 297.631 439.057ZM303.325 437.741H305.075V442.669L309.205 437.741H310.801V445.217H309.051V440.289L304.935 445.217H303.325V437.741ZM306.951 436.859C306.195 436.859 305.617 436.686 305.215 436.341C304.823 435.986 304.623 435.473 304.613 434.801H305.775C305.785 435.137 305.887 435.403 306.083 435.599C306.289 435.795 306.573 435.893 306.937 435.893C307.292 435.893 307.572 435.795 307.777 435.599C307.992 435.403 308.104 435.137 308.113 434.801H309.303C309.294 435.473 309.089 435.986 308.687 436.341C308.286 436.686 307.707 436.859 306.951 436.859Z" fill="black"/>
<path d="M90.4534 71.5157V82.6201H88.3912V77.8611H82.6486V82.6201H80.5863V71.5157H82.6486V76.1002H88.3912V71.5157H90.4534ZM101.278 78.4322C101.278 78.5696 101.267 78.7653 101.246 79.0191H94.5995C94.7158 79.6431 95.0172 80.1401 95.5037 80.5103C96.0007 80.8698 96.6141 81.0496 97.3438 81.0496C98.2745 81.0496 99.0412 80.7429 99.644 80.1296L100.707 81.351C100.326 81.8058 99.845 82.1495 99.2633 82.3822C98.6817 82.6148 98.026 82.7312 97.2963 82.7312C96.3656 82.7312 95.546 82.5461 94.8374 82.1759C94.1288 81.8058 93.5789 81.2929 93.1876 80.6372C92.8069 79.9709 92.6165 79.2201 92.6165 78.3846C92.6165 77.5597 92.8016 76.8194 93.1718 76.1637C93.5525 75.4974 94.076 74.9792 94.7422 74.6091C95.4085 74.2389 96.1594 74.0539 96.9948 74.0539C97.8197 74.0539 98.5548 74.2389 99.1999 74.6091C99.8556 74.9686 100.363 75.4816 100.723 76.1478C101.093 76.8035 101.278 77.565 101.278 78.4322ZM96.9948 75.6402C96.3603 75.6402 95.821 75.8306 95.3768 76.2113C94.9432 76.5814 94.6788 77.0785 94.5836 77.7024H99.3902C99.3056 77.0891 99.0465 76.592 98.6129 76.2113C98.1793 75.8306 97.64 75.6402 96.9948 75.6402ZM103.447 74.149H105.43V79.733L110.109 74.149H111.918V82.6201H109.935V77.0362L105.271 82.6201H103.447V74.149ZM107.555 73.1496C106.699 73.1496 106.043 72.954 105.588 72.5627C105.144 72.1608 104.917 71.5792 104.906 70.8177H106.223C106.233 71.1984 106.35 71.4998 106.572 71.7219C106.805 71.944 107.127 72.0551 107.54 72.0551C107.941 72.0551 108.259 71.944 108.491 71.7219C108.735 71.4998 108.862 71.1984 108.872 70.8177H110.221C110.21 71.5792 109.977 72.1608 109.523 72.5627C109.068 72.954 108.412 73.1496 107.555 73.1496ZM119.281 74.0539C120.106 74.0539 120.841 74.2336 121.486 74.5932C122.142 74.9528 122.655 75.4604 123.025 76.1161C123.395 76.7718 123.58 77.5279 123.58 78.3846C123.58 79.2412 123.395 80.0026 123.025 80.6689C122.655 81.3246 122.142 81.8322 121.486 82.1918C120.841 82.5514 120.106 82.7312 119.281 82.7312C118.139 82.7312 117.235 82.3504 116.568 81.589V85.6976H114.585V74.149H116.473V75.2595C116.801 74.8576 117.203 74.5562 117.679 74.3553C118.165 74.1543 118.699 74.0539 119.281 74.0539ZM119.059 81.0338C119.789 81.0338 120.386 80.7905 120.851 80.3041C121.327 79.8176 121.565 79.1777 121.565 78.3846C121.565 77.5914 121.327 76.9516 120.851 76.4651C120.386 75.9786 119.789 75.7354 119.059 75.7354C118.583 75.7354 118.155 75.8464 117.774 76.0685C117.393 76.28 117.092 76.5867 116.87 76.9886C116.648 77.3905 116.537 77.8558 116.537 78.3846C116.537 78.9134 116.648 79.3787 116.87 79.7806C117.092 80.1824 117.393 80.4944 117.774 80.7165C118.155 80.928 118.583 81.0338 119.059 81.0338ZM129.329 82.7312C128.472 82.7312 127.7 82.5461 127.013 82.1759C126.325 81.8058 125.786 81.2929 125.395 80.6372C125.014 79.9709 124.824 79.2201 124.824 78.3846C124.824 77.5491 125.014 76.8035 125.395 76.1478C125.786 75.4921 126.325 74.9792 127.013 74.6091C127.7 74.2389 128.472 74.0539 129.329 74.0539C130.196 74.0539 130.973 74.2389 131.661 74.6091C132.348 74.9792 132.882 75.4921 133.263 76.1478C133.654 76.8035 133.85 77.5491 133.85 78.3846C133.85 79.2201 133.654 79.9709 133.263 80.6372C132.882 81.2929 132.348 81.8058 131.661 82.1759C130.973 82.5461 130.196 82.7312 129.329 82.7312ZM129.329 81.0338C130.059 81.0338 130.661 80.7905 131.137 80.3041C131.613 79.8176 131.851 79.1777 131.851 78.3846C131.851 77.5914 131.613 76.9516 131.137 76.4651C130.661 75.9786 130.059 75.7354 129.329 75.7354C128.599 75.7354 127.996 75.9786 127.52 76.4651C127.055 76.9516 126.822 77.5914 126.822 78.3846C126.822 79.1777 127.055 79.8176 127.52 80.3041C127.996 80.7905 128.599 81.0338 129.329 81.0338ZM139.664 82.7312C138.786 82.7312 137.998 82.5461 137.3 82.1759C136.602 81.8058 136.057 81.2929 135.666 80.6372C135.275 79.9709 135.079 79.2201 135.079 78.3846C135.079 77.5491 135.275 76.8035 135.666 76.1478C136.057 75.4921 136.597 74.9792 137.284 74.6091C137.982 74.2389 138.775 74.0539 139.664 74.0539C140.499 74.0539 141.229 74.2231 141.853 74.5615C142.487 74.8999 142.963 75.3864 143.281 76.0209L141.758 76.9093C141.514 76.518 141.208 76.2271 140.838 76.0368C140.478 75.8358 140.081 75.7354 139.648 75.7354C138.908 75.7354 138.294 75.9786 137.808 76.4651C137.321 76.941 137.078 77.5808 137.078 78.3846C137.078 79.1883 137.316 79.8334 137.792 80.3199C138.278 80.7958 138.897 81.0338 139.648 81.0338C140.081 81.0338 140.478 80.9386 140.838 80.7482C141.208 80.5473 141.514 80.2512 141.758 79.8599L143.281 80.7482C142.953 81.3828 142.472 81.8745 141.837 82.2235C141.213 82.562 140.489 82.7312 139.664 82.7312ZM152.834 78.4322C152.834 78.5696 152.824 78.7653 152.802 79.0191H146.156C146.272 79.6431 146.573 80.1401 147.06 80.5103C147.557 80.8698 148.17 81.0496 148.9 81.0496C149.831 81.0496 150.597 80.7429 151.2 80.1296L152.263 81.351C151.882 81.8058 151.401 82.1495 150.82 82.3822C150.238 82.6148 149.582 82.7312 148.852 82.7312C147.922 82.7312 147.102 82.5461 146.394 82.1759C145.685 81.8058 145.135 81.2929 144.744 80.6372C144.363 79.9709 144.173 79.2201 144.173 78.3846C144.173 77.5597 144.358 76.8194 144.728 76.1637C145.109 75.4974 145.632 74.9792 146.298 74.6091C146.965 74.2389 147.716 74.0539 148.551 74.0539C149.376 74.0539 150.111 74.2389 150.756 74.6091C151.412 74.9686 151.919 75.4816 152.279 76.1478C152.649 76.8035 152.834 77.565 152.834 78.4322ZM148.551 75.6402C147.917 75.6402 147.377 75.8306 146.933 76.2113C146.499 76.5814 146.235 77.0785 146.14 77.7024H150.946C150.862 77.0891 150.603 76.592 150.169 76.2113C149.736 75.8306 149.196 75.6402 148.551 75.6402ZM161.403 75.8306H158.437V82.6201H156.454V75.8306H153.472V74.149H161.403V75.8306ZM162.842 74.149H164.825V79.733L169.504 74.149H171.313V82.6201H169.33V77.0362L164.666 82.6201H162.842V74.149ZM185.376 77.8611H182.568V80.6372H180.871V77.8611H178.063V76.2747H180.871V73.4986H182.568V76.2747H185.376V77.8611ZM202.528 82.6201L202.512 75.2595L198.863 81.351H197.943L194.295 75.3547V82.6201H192.343V71.5157H194.041L198.435 78.8605L202.782 71.5157H204.463L204.495 82.6201H202.528ZM210.537 74.0539C211.785 74.0539 212.737 74.3553 213.393 74.9581C214.059 75.5503 214.392 76.4492 214.392 77.6549V82.6201H212.52V81.589C212.277 81.9591 211.928 82.2447 211.473 82.4456C211.029 82.636 210.49 82.7312 209.855 82.7312C209.22 82.7312 208.665 82.6254 208.189 82.4139C207.713 82.1918 207.343 81.8904 207.079 81.5097C206.825 81.1184 206.698 80.6795 206.698 80.193C206.698 79.4316 206.978 78.8235 207.539 78.3687C208.11 77.9034 209.004 77.6707 210.22 77.6707H212.409V77.5438C212.409 76.9516 212.229 76.4968 211.87 76.1796C211.521 75.8623 210.997 75.7037 210.299 75.7037C209.823 75.7037 209.353 75.7777 208.887 75.9257C208.433 76.0738 208.047 76.28 207.729 76.5444L206.952 75.1008C207.396 74.7624 207.93 74.5033 208.554 74.3235C209.178 74.1437 209.839 74.0539 210.537 74.0539ZM210.267 81.2876C210.765 81.2876 211.203 81.1765 211.584 80.9545C211.975 80.7218 212.25 80.3939 212.409 79.9709V78.9874H210.363C209.22 78.9874 208.649 79.3628 208.649 80.1137C208.649 80.4733 208.792 80.7588 209.078 80.9703C209.363 81.1818 209.76 81.2876 210.267 81.2876ZM221.541 74.0539C222.366 74.0539 223.101 74.2336 223.746 74.5932C224.402 74.9528 224.915 75.4604 225.285 76.1161C225.655 76.7718 225.84 77.5279 225.84 78.3846C225.84 79.2412 225.655 80.0026 225.285 80.6689C224.915 81.3246 224.402 81.8322 223.746 82.1918C223.101 82.5514 222.366 82.7312 221.541 82.7312C220.399 82.7312 219.495 82.3504 218.829 81.589V85.6976H216.846V74.149H218.733V75.2595C219.061 74.8576 219.463 74.5562 219.939 74.3553C220.426 74.1543 220.96 74.0539 221.541 74.0539ZM221.319 81.0338C222.049 81.0338 222.646 80.7905 223.112 80.3041C223.588 79.8176 223.826 79.1777 223.826 78.3846C223.826 77.5914 223.588 76.9516 223.112 76.4651C222.646 75.9786 222.049 75.7354 221.319 75.7354C220.843 75.7354 220.415 75.8464 220.034 76.0685C219.654 76.28 219.352 76.5867 219.13 76.9886C218.908 77.3905 218.797 77.8558 218.797 78.3846C218.797 78.9134 218.908 79.3787 219.13 79.7806C219.352 80.1824 219.654 80.4944 220.034 80.7165C220.415 80.928 220.843 81.0338 221.319 81.0338ZM231.336 79.2253H229.797V82.6201H227.814V74.149H229.797V77.5755H231.383L233.89 74.149H236.015L232.938 78.2259L236.221 82.6201H233.89L231.336 79.2253ZM245.273 78.4322C245.273 78.5696 245.262 78.7653 245.241 79.0191H238.594C238.711 79.6431 239.012 80.1401 239.499 80.5103C239.996 80.8698 240.609 81.0496 241.339 81.0496C242.269 81.0496 243.036 80.7429 243.639 80.1296L244.702 81.351C244.321 81.8058 243.84 82.1495 243.258 82.3822C242.677 82.6148 242.021 82.7312 241.291 82.7312C240.361 82.7312 239.541 82.5461 238.832 82.1759C238.124 81.8058 237.574 81.2929 237.183 80.6372C236.802 79.9709 236.611 79.2201 236.611 78.3846C236.611 77.5597 236.797 76.8194 237.167 76.1637C237.547 75.4974 238.071 74.9792 238.737 74.6091C239.403 74.2389 240.154 74.0539 240.99 74.0539C241.815 74.0539 242.55 74.2389 243.195 74.6091C243.85 74.9686 244.358 75.4816 244.718 76.1478C245.088 76.8035 245.273 77.565 245.273 78.4322ZM240.99 75.6402C240.355 75.6402 239.816 75.8306 239.372 76.2113C238.938 76.5814 238.674 77.0785 238.579 77.7024H243.385C243.301 77.0891 243.041 76.592 242.608 76.2113C242.174 75.8306 241.635 75.6402 240.99 75.6402ZM253.842 75.8306H250.876V82.6201H248.893V75.8306H245.91V74.149H253.842V75.8306ZM255.28 74.149H257.263V79.733L261.943 74.149H263.752V82.6201H261.769V77.0362L257.105 82.6201H255.28V74.149ZM266.419 74.149H268.402V77.5914H272.669V74.149H274.652V82.6201H272.669V79.2729H268.402V82.6201H266.419V74.149ZM283.814 75.8306H279.293V82.6201H277.31V74.149H283.814V75.8306Z" fill="black"/>
<path d="M6.348 523V520.2H7.56C7.81067 520.2 8.02667 520.241 8.208 520.324C8.38933 520.404 8.52933 520.52 8.628 520.672C8.72667 520.824 8.776 521.005 8.776 521.216C8.776 521.424 8.72667 521.604 8.628 521.756C8.52933 521.908 8.38933 522.025 8.208 522.108C8.02667 522.188 7.81067 522.228 7.56 522.228H6.708L6.996 521.936V523H6.348ZM6.996 522.008L6.708 521.7H7.524C7.724 521.7 7.87333 521.657 7.972 521.572C8.07067 521.487 8.12 521.368 8.12 521.216C8.12 521.061 8.07067 520.941 7.972 520.856C7.87333 520.771 7.724 520.728 7.524 520.728H6.708L6.996 520.42V522.008ZM10.3036 523.032C10.0582 523.032 9.84223 522.984 9.65556 522.888C9.47156 522.792 9.3289 522.661 9.22756 522.496C9.12623 522.328 9.07556 522.137 9.07556 521.924C9.07556 521.708 9.1249 521.517 9.22356 521.352C9.3249 521.184 9.46223 521.053 9.63556 520.96C9.8089 520.864 10.0049 520.816 10.2236 520.816C10.4342 520.816 10.6236 520.861 10.7916 520.952C10.9622 521.04 11.0969 521.168 11.1956 521.336C11.2942 521.501 11.3436 521.7 11.3436 521.932C11.3436 521.956 11.3422 521.984 11.3396 522.016C11.3369 522.045 11.3342 522.073 11.3316 522.1H9.58356V521.736H11.0036L10.7636 521.844C10.7636 521.732 10.7409 521.635 10.6956 521.552C10.6502 521.469 10.5876 521.405 10.5076 521.36C10.4276 521.312 10.3342 521.288 10.2276 521.288C10.1209 521.288 10.0262 521.312 9.94356 521.36C9.86356 521.405 9.8009 521.471 9.75556 521.556C9.71023 521.639 9.68756 521.737 9.68756 521.852V521.948C9.68756 522.065 9.7129 522.169 9.76356 522.26C9.8169 522.348 9.89023 522.416 9.98356 522.464C10.0796 522.509 10.1916 522.532 10.3196 522.532C10.4342 522.532 10.5342 522.515 10.6196 522.48C10.7076 522.445 10.7876 522.393 10.8596 522.324L11.1916 522.684C11.0929 522.796 10.9689 522.883 10.8196 522.944C10.6702 523.003 10.4982 523.032 10.3036 523.032ZM13.4459 523L12.7259 521.98L13.2339 521.68L14.1819 523H13.4459ZM11.9219 523V520.848H12.5459V523H11.9219ZM12.3619 522.184V521.684H13.1139V522.184H12.3619ZM13.2939 521.996L12.7099 521.932L13.4659 520.848H14.1299L13.2939 521.996ZM14.3163 522.996L14.3483 522.484C14.3643 522.487 14.3803 522.489 14.3963 522.492C14.4123 522.492 14.4269 522.492 14.4403 522.492C14.5149 522.492 14.5736 522.471 14.6163 522.428C14.6589 522.385 14.6909 522.328 14.7123 522.256C14.7336 522.181 14.7483 522.097 14.7563 522.004C14.7669 521.911 14.7749 521.813 14.7803 521.712L14.8123 520.848H16.6523V523H16.0283V521.208L16.1683 521.36H15.2243L15.3563 521.2L15.3283 521.74C15.3203 521.932 15.3043 522.108 15.2803 522.268C15.2589 522.428 15.2229 522.567 15.1723 522.684C15.1216 522.799 15.0536 522.888 14.9683 522.952C14.8829 523.013 14.7736 523.044 14.6403 523.044C14.5923 523.044 14.5416 523.04 14.4883 523.032C14.4349 523.024 14.3776 523.012 14.3163 522.996ZM18.6403 523V522.58L18.6003 522.488V521.736C18.6003 521.603 18.559 521.499 18.4763 521.424C18.3963 521.349 18.2723 521.312 18.1043 521.312C17.9897 521.312 17.8763 521.331 17.7643 521.368C17.655 521.403 17.5617 521.451 17.4843 521.512L17.2603 521.076C17.3777 520.993 17.519 520.929 17.6843 520.884C17.8497 520.839 18.0177 520.816 18.1883 520.816C18.5163 520.816 18.771 520.893 18.9523 521.048C19.1337 521.203 19.2243 521.444 19.2243 521.772V523H18.6403ZM17.9843 523.032C17.8163 523.032 17.6723 523.004 17.5523 522.948C17.4323 522.889 17.3403 522.811 17.2763 522.712C17.2123 522.613 17.1803 522.503 17.1803 522.38C17.1803 522.252 17.211 522.14 17.2723 522.044C17.3363 521.948 17.4363 521.873 17.5723 521.82C17.7083 521.764 17.8857 521.736 18.1043 521.736H18.6763V522.1H18.1723C18.0257 522.1 17.9243 522.124 17.8683 522.172C17.815 522.22 17.7883 522.28 17.7883 522.352C17.7883 522.432 17.819 522.496 17.8803 522.544C17.9443 522.589 18.031 522.612 18.1403 522.612C18.2443 522.612 18.3377 522.588 18.4203 522.54C18.503 522.489 18.563 522.416 18.6003 522.32L18.6963 522.608C18.651 522.747 18.5683 522.852 18.4483 522.924C18.3283 522.996 18.1737 523.032 17.9843 523.032ZM19.8664 523V520.848H20.5184L21.3304 522.32H21.0704L21.9384 520.848H22.5224L22.5304 523H21.9664V521.488L22.0624 521.552L21.3224 522.792H21.0584L20.3144 521.508L20.4304 521.48V523H19.8664ZM24.5161 523V522.58L24.4761 522.488V521.736C24.4761 521.603 24.4348 521.499 24.3521 521.424C24.2721 521.349 24.1481 521.312 23.9801 521.312C23.8655 521.312 23.7521 521.331 23.6401 521.368C23.5308 521.403 23.4375 521.451 23.3601 521.512L23.1361 521.076C23.2535 520.993 23.3948 520.929 23.5601 520.884C23.7255 520.839 23.8935 520.816 24.0641 520.816C24.3921 520.816 24.6468 520.893 24.8281 521.048C25.0095 521.203 25.1001 521.444 25.1001 521.772V523H24.5161ZM23.8601 523.032C23.6921 523.032 23.5481 523.004 23.4281 522.948C23.3081 522.889 23.2161 522.811 23.1521 522.712C23.0881 522.613 23.0561 522.503 23.0561 522.38C23.0561 522.252 23.0868 522.14 23.1481 522.044C23.2121 521.948 23.3121 521.873 23.4481 521.82C23.5841 521.764 23.7615 521.736 23.9801 521.736H24.5521V522.1H24.0481C23.9015 522.1 23.8001 522.124 23.7441 522.172C23.6908 522.22 23.6641 522.28 23.6641 522.352C23.6641 522.432 23.6948 522.496 23.7561 522.544C23.8201 522.589 23.9068 522.612 24.0161 522.612C24.1201 522.612 24.2135 522.588 24.2961 522.54C24.3788 522.489 24.4388 522.416 24.4761 522.32L24.5721 522.608C24.5268 522.747 24.4441 522.852 24.3241 522.924C24.2041 522.996 24.0495 523.032 23.8601 523.032ZM28.363 523.048C28.1417 523.048 27.9363 523.012 27.747 522.94C27.5603 522.868 27.3977 522.767 27.259 522.636C27.123 522.505 27.0163 522.352 26.939 522.176C26.8643 522 26.827 521.808 26.827 521.6C26.827 521.392 26.8643 521.2 26.939 521.024C27.0163 520.848 27.1243 520.695 27.263 520.564C27.4017 520.433 27.5643 520.332 27.751 520.26C27.9377 520.188 28.1403 520.152 28.359 520.152C28.5803 520.152 28.783 520.188 28.967 520.26C29.1537 520.332 29.315 520.433 29.451 520.564C29.5897 520.695 29.6977 520.848 29.775 521.024C29.8523 521.197 29.891 521.389 29.891 521.6C29.891 521.808 29.8523 522.001 29.775 522.18C29.6977 522.356 29.5897 522.509 29.451 522.64C29.315 522.768 29.1537 522.868 28.967 522.94C28.783 523.012 28.5817 523.048 28.363 523.048ZM28.359 522.496C28.4843 522.496 28.599 522.475 28.703 522.432C28.8097 522.389 28.903 522.328 28.983 522.248C29.063 522.168 29.1243 522.073 29.167 521.964C29.2123 521.855 29.235 521.733 29.235 521.6C29.235 521.467 29.2123 521.345 29.167 521.236C29.1243 521.127 29.063 521.032 28.983 520.952C28.9057 520.872 28.8137 520.811 28.707 520.768C28.6003 520.725 28.4843 520.704 28.359 520.704C28.2337 520.704 28.1177 520.725 28.011 520.768C27.907 520.811 27.815 520.872 27.735 520.952C27.655 521.032 27.5923 521.127 27.547 521.236C27.5043 521.345 27.483 521.467 27.483 521.6C27.483 521.731 27.5043 521.852 27.547 521.964C27.5923 522.073 27.6537 522.168 27.731 522.248C27.811 522.328 27.9043 522.389 28.011 522.432C28.1177 522.475 28.2337 522.496 28.359 522.496ZM31.8302 523.048C31.6089 523.048 31.4035 523.012 31.2142 522.94C31.0275 522.868 30.8649 522.767 30.7262 522.636C30.5902 522.505 30.4835 522.352 30.4062 522.176C30.3315 522 30.2942 521.808 30.2942 521.6C30.2942 521.392 30.3315 521.2 30.4062 521.024C30.4835 520.848 30.5915 520.695 30.7302 520.564C30.8689 520.433 31.0315 520.332 31.2182 520.26C31.4049 520.188 31.6075 520.152 31.8262 520.152C32.0475 520.152 32.2502 520.188 32.4342 520.26C32.6209 520.332 32.7822 520.433 32.9182 520.564C33.0569 520.695 33.1649 520.848 33.2422 521.024C33.3195 521.197 33.3582 521.389 33.3582 521.6C33.3582 521.808 33.3195 522.001 33.2422 522.18C33.1649 522.356 33.0569 522.509 32.9182 522.64C32.7822 522.768 32.6209 522.868 32.4342 522.94C32.2502 523.012 32.0489 523.048 31.8302 523.048ZM31.8262 522.496C31.9515 522.496 32.0662 522.475 32.1702 522.432C32.2769 522.389 32.3702 522.328 32.4502 522.248C32.5302 522.168 32.5915 522.073 32.6342 521.964C32.6795 521.855 32.7022 521.733 32.7022 521.6C32.7022 521.467 32.6795 521.345 32.6342 521.236C32.5915 521.127 32.5302 521.032 32.4502 520.952C32.3729 520.872 32.2809 520.811 32.1742 520.768C32.0675 520.725 31.9515 520.704 31.8262 520.704C31.7009 520.704 31.5849 520.725 31.4782 520.768C31.3742 520.811 31.2822 520.872 31.2022 520.952C31.1222 521.032 31.0595 521.127 31.0142 521.236C30.9715 521.345 30.9502 521.467 30.9502 521.6C30.9502 521.731 30.9715 521.852 31.0142 521.964C31.0595 522.073 31.1209 522.168 31.1982 522.248C31.2782 522.328 31.3715 522.389 31.4782 522.432C31.5849 522.475 31.7009 522.496 31.8262 522.496ZM35.2974 523.048C35.076 523.048 34.8707 523.012 34.6814 522.94C34.4947 522.868 34.332 522.767 34.1934 522.636C34.0574 522.505 33.9507 522.352 33.8734 522.176C33.7987 522 33.7614 521.808 33.7614 521.6C33.7614 521.392 33.7987 521.2 33.8734 521.024C33.9507 520.848 34.0587 520.695 34.1974 520.564C34.336 520.433 34.4987 520.332 34.6854 520.26C34.872 520.188 35.0747 520.152 35.2934 520.152C35.5147 520.152 35.7174 520.188 35.9014 520.26C36.088 520.332 36.2494 520.433 36.3854 520.564C36.524 520.695 36.632 520.848 36.7094 521.024C36.7867 521.197 36.8254 521.389 36.8254 521.6C36.8254 521.808 36.7867 522.001 36.7094 522.18C36.632 522.356 36.524 522.509 36.3854 522.64C36.2494 522.768 36.088 522.868 35.9014 522.94C35.7174 523.012 35.516 523.048 35.2974 523.048ZM35.2934 522.496C35.4187 522.496 35.5334 522.475 35.6374 522.432C35.744 522.389 35.8374 522.328 35.9174 522.248C35.9974 522.168 36.0587 522.073 36.1014 521.964C36.1467 521.855 36.1694 521.733 36.1694 521.6C36.1694 521.467 36.1467 521.345 36.1014 521.236C36.0587 521.127 35.9974 521.032 35.9174 520.952C35.84 520.872 35.748 520.811 35.6414 520.768C35.5347 520.725 35.4187 520.704 35.2934 520.704C35.168 520.704 35.052 520.725 34.9454 520.768C34.8414 520.811 34.7494 520.872 34.6694 520.952C34.5894 521.032 34.5267 521.127 34.4814 521.236C34.4387 521.345 34.4174 521.467 34.4174 521.6C34.4174 521.731 34.4387 521.852 34.4814 521.964C34.5267 522.073 34.588 522.168 34.6654 522.248C34.7454 522.328 34.8387 522.389 34.9454 522.432C35.052 522.475 35.168 522.496 35.2934 522.496ZM38.4054 522.752L38.6054 522.288C38.7254 522.36 38.8534 522.416 38.9894 522.456C39.128 522.493 39.2627 522.515 39.3934 522.52C39.5267 522.523 39.6467 522.509 39.7534 522.48C39.8627 522.451 39.9494 522.407 40.0134 522.348C40.08 522.289 40.1134 522.215 40.1134 522.124C40.1134 522.017 40.0694 521.939 39.9814 521.888C39.8934 521.835 39.776 521.808 39.6294 521.808H38.9454V521.32H39.5814C39.712 521.32 39.8134 521.293 39.8854 521.24C39.96 521.187 39.9974 521.113 39.9974 521.02C39.9974 520.94 39.9707 520.876 39.9174 520.828C39.864 520.777 39.7907 520.74 39.6974 520.716C39.6067 520.692 39.504 520.681 39.3894 520.684C39.2747 520.687 39.156 520.705 39.0334 520.74C38.9107 520.775 38.7934 520.823 38.6814 520.884L38.4854 520.384C38.6667 520.291 38.8574 520.227 39.0574 520.192C39.26 520.155 39.4547 520.145 39.6414 520.164C39.8307 520.18 40.0014 520.223 40.1534 520.292C40.3054 520.359 40.4267 520.447 40.5174 520.556C40.608 520.665 40.6534 520.795 40.6534 520.944C40.6534 521.077 40.6187 521.196 40.5494 521.3C40.48 521.404 40.3827 521.484 40.2574 521.54C40.1347 521.596 39.9934 521.624 39.8334 521.624L39.8494 521.48C40.036 521.48 40.1974 521.512 40.3334 521.576C40.472 521.637 40.5787 521.724 40.6534 521.836C40.7307 521.945 40.7694 522.072 40.7694 522.216C40.7694 522.349 40.7334 522.469 40.6614 522.576C40.592 522.68 40.496 522.768 40.3734 522.84C40.2507 522.912 40.1107 522.965 39.9534 523C39.796 523.035 39.628 523.049 39.4494 523.044C39.2734 523.039 39.096 523.013 38.9174 522.968C38.7387 522.92 38.568 522.848 38.4054 522.752ZM42.3864 523.032C42.141 523.032 41.925 522.984 41.7384 522.888C41.5544 522.792 41.4117 522.661 41.3104 522.496C41.209 522.328 41.1584 522.137 41.1584 521.924C41.1584 521.708 41.2077 521.517 41.3064 521.352C41.4077 521.184 41.545 521.053 41.7184 520.96C41.8917 520.864 42.0877 520.816 42.3064 520.816C42.517 520.816 42.7064 520.861 42.8744 520.952C43.045 521.04 43.1797 521.168 43.2784 521.336C43.377 521.501 43.4264 521.7 43.4264 521.932C43.4264 521.956 43.425 521.984 43.4224 522.016C43.4197 522.045 43.417 522.073 43.4144 522.1H41.6664V521.736H43.0864L42.8464 521.844C42.8464 521.732 42.8237 521.635 42.7784 521.552C42.733 521.469 42.6704 521.405 42.5904 521.36C42.5104 521.312 42.417 521.288 42.3104 521.288C42.2037 521.288 42.109 521.312 42.0264 521.36C41.9464 521.405 41.8837 521.471 41.8384 521.556C41.793 521.639 41.7704 521.737 41.7704 521.852V521.948C41.7704 522.065 41.7957 522.169 41.8464 522.26C41.8997 522.348 41.973 522.416 42.0664 522.464C42.1624 522.509 42.2744 522.532 42.4024 522.532C42.517 522.532 42.617 522.515 42.7024 522.48C42.7904 522.445 42.8704 522.393 42.9424 522.324L43.2744 522.684C43.1757 522.796 43.0517 522.883 42.9024 522.944C42.753 523.003 42.581 523.032 42.3864 523.032ZM45.2727 523.032C45.0914 523.032 44.9327 522.992 44.7967 522.912C44.6607 522.832 44.554 522.711 44.4767 522.548C44.402 522.383 44.3647 522.175 44.3647 521.924C44.3647 521.671 44.4007 521.463 44.4727 521.3C44.5447 521.137 44.6487 521.016 44.7847 520.936C44.9207 520.856 45.0834 520.816 45.2727 520.816C45.4754 520.816 45.6567 520.863 45.8167 520.956C45.9794 521.047 46.1074 521.175 46.2007 521.34C46.2967 521.505 46.3447 521.7 46.3447 521.924C46.3447 522.151 46.2967 522.347 46.2007 522.512C46.1074 522.677 45.9794 522.805 45.8167 522.896C45.6567 522.987 45.4754 523.032 45.2727 523.032ZM44.0007 523.776V520.848H44.5967V521.288L44.5847 521.928L44.6247 522.564V523.776H44.0007ZM45.1647 522.52C45.2687 522.52 45.3607 522.496 45.4407 522.448C45.5234 522.4 45.5887 522.332 45.6367 522.244C45.6874 522.153 45.7127 522.047 45.7127 521.924C45.7127 521.799 45.6874 521.692 45.6367 521.604C45.5887 521.516 45.5234 521.448 45.4407 521.4C45.3607 521.352 45.2687 521.328 45.1647 521.328C45.0607 521.328 44.9674 521.352 44.8847 521.4C44.802 521.448 44.7367 521.516 44.6887 521.604C44.6407 521.692 44.6167 521.799 44.6167 521.924C44.6167 522.047 44.6407 522.153 44.6887 522.244C44.7367 522.332 44.802 522.4 44.8847 522.448C44.9674 522.496 45.0607 522.52 45.1647 522.52ZM47.89 523.032C47.6607 523.032 47.4567 522.984 47.278 522.888C47.102 522.792 46.962 522.661 46.858 522.496C46.7567 522.328 46.706 522.137 46.706 521.924C46.706 521.708 46.7567 521.517 46.858 521.352C46.962 521.184 47.102 521.053 47.278 520.96C47.4567 520.864 47.6607 520.816 47.89 520.816C48.1167 520.816 48.3194 520.864 48.498 520.96C48.6767 521.053 48.8167 521.183 48.918 521.348C49.0194 521.513 49.07 521.705 49.07 521.924C49.07 522.137 49.0194 522.328 48.918 522.496C48.8167 522.661 48.6767 522.792 48.498 522.888C48.3194 522.984 48.1167 523.032 47.89 523.032ZM47.89 522.52C47.994 522.52 48.0874 522.496 48.17 522.448C48.2527 522.4 48.318 522.332 48.366 522.244C48.414 522.153 48.438 522.047 48.438 521.924C48.438 521.799 48.414 521.692 48.366 521.604C48.318 521.516 48.2527 521.448 48.17 521.4C48.0874 521.352 47.994 521.328 47.89 521.328C47.786 521.328 47.6927 521.352 47.61 521.4C47.5274 521.448 47.4607 521.516 47.41 521.604C47.362 521.692 47.338 521.799 47.338 521.924C47.338 522.047 47.362 522.153 47.41 522.244C47.4607 522.332 47.5274 522.4 47.61 522.448C47.6927 522.496 47.786 522.52 47.89 522.52ZM51.1232 523L50.4032 521.98L50.9112 521.68L51.8592 523H51.1232ZM49.5992 523V520.848H50.2232V523H49.5992ZM50.0392 522.184V521.684H50.7912V522.184H50.0392ZM50.9712 521.996L50.3872 521.932L51.1432 520.848H51.8072L50.9712 521.996ZM53.2072 523.032C52.9779 523.032 52.7739 522.984 52.5952 522.888C52.4192 522.792 52.2792 522.661 52.1752 522.496C52.0739 522.328 52.0232 522.137 52.0232 521.924C52.0232 521.708 52.0739 521.517 52.1752 521.352C52.2792 521.184 52.4192 521.053 52.5952 520.96C52.7739 520.864 52.9779 520.816 53.2072 520.816C53.4339 520.816 53.6366 520.864 53.8152 520.96C53.9939 521.053 54.1339 521.183 54.2352 521.348C54.3366 521.513 54.3872 521.705 54.3872 521.924C54.3872 522.137 54.3366 522.328 54.2352 522.496C54.1339 522.661 53.9939 522.792 53.8152 522.888C53.6366 522.984 53.4339 523.032 53.2072 523.032ZM53.2072 522.52C53.3112 522.52 53.4046 522.496 53.4872 522.448C53.5699 522.4 53.6352 522.332 53.6832 522.244C53.7312 522.153 53.7552 522.047 53.7552 521.924C53.7552 521.799 53.7312 521.692 53.6832 521.604C53.6352 521.516 53.5699 521.448 53.4872 521.4C53.4046 521.352 53.3112 521.328 53.2072 521.328C53.1032 521.328 53.0099 521.352 52.9272 521.4C52.8446 521.448 52.7779 521.516 52.7272 521.604C52.6792 521.692 52.6552 521.799 52.6552 521.924C52.6552 522.047 52.6792 522.153 52.7272 522.244C52.7779 522.332 52.8446 522.4 52.9272 522.448C53.0099 522.496 53.1032 522.52 53.2072 522.52ZM56.3652 522.72V521.36H55.6612L55.6492 521.636C55.6438 521.751 55.6372 521.86 55.6292 521.964C55.6212 522.068 55.6052 522.163 55.5812 522.248C55.5598 522.331 55.5278 522.401 55.4852 522.46C55.4425 522.516 55.3852 522.555 55.3132 522.576L54.6972 522.488C54.7745 522.488 54.8372 522.465 54.8852 522.42C54.9332 522.372 54.9705 522.307 54.9972 522.224C55.0238 522.139 55.0438 522.043 55.0572 521.936C55.0705 521.827 55.0798 521.712 55.0852 521.592L55.1132 520.848H56.9892V522.72H56.3652ZM54.6252 523.464V522.488H57.2972V523.464H56.7172V523H55.2052V523.464H54.6252ZM58.8418 523.032C58.5965 523.032 58.3805 522.984 58.1938 522.888C58.0098 522.792 57.8672 522.661 57.7658 522.496C57.6645 522.328 57.6138 522.137 57.6138 521.924C57.6138 521.708 57.6632 521.517 57.7618 521.352C57.8632 521.184 58.0005 521.053 58.1738 520.96C58.3472 520.864 58.5432 520.816 58.7618 520.816C58.9725 520.816 59.1618 520.861 59.3298 520.952C59.5005 521.04 59.6352 521.168 59.7338 521.336C59.8325 521.501 59.8818 521.7 59.8818 521.932C59.8818 521.956 59.8805 521.984 59.8778 522.016C59.8752 522.045 59.8725 522.073 59.8698 522.1H58.1218V521.736H59.5418L59.3018 521.844C59.3018 521.732 59.2792 521.635 59.2338 521.552C59.1885 521.469 59.1258 521.405 59.0458 521.36C58.9658 521.312 58.8725 521.288 58.7658 521.288C58.6592 521.288 58.5645 521.312 58.4818 521.36C58.4018 521.405 58.3392 521.471 58.2938 521.556C58.2485 521.639 58.2258 521.737 58.2258 521.852V521.948C58.2258 522.065 58.2512 522.169 58.3018 522.26C58.3552 522.348 58.4285 522.416 58.5218 522.464C58.6178 522.509 58.7298 522.532 58.8578 522.532C58.9725 522.532 59.0725 522.515 59.1578 522.48C59.2458 522.445 59.3258 522.393 59.3978 522.324L59.7298 522.684C59.6312 522.796 59.5072 522.883 59.3578 522.944C59.2085 523.003 59.0365 523.032 58.8418 523.032ZM61.7282 523.032C61.5468 523.032 61.3882 522.992 61.2522 522.912C61.1162 522.832 61.0095 522.711 60.9322 522.548C60.8575 522.383 60.8202 522.175 60.8202 521.924C60.8202 521.671 60.8562 521.463 60.9282 521.3C61.0002 521.137 61.1042 521.016 61.2402 520.936C61.3762 520.856 61.5388 520.816 61.7282 520.816C61.9308 520.816 62.1122 520.863 62.2722 520.956C62.4348 521.047 62.5628 521.175 62.6562 521.34C62.7522 521.505 62.8002 521.7 62.8002 521.924C62.8002 522.151 62.7522 522.347 62.6562 522.512C62.5628 522.677 62.4348 522.805 62.2722 522.896C62.1122 522.987 61.9308 523.032 61.7282 523.032ZM60.4562 523.776V520.848H61.0522V521.288L61.0402 521.928L61.0802 522.564V523.776H60.4562ZM61.6202 522.52C61.7242 522.52 61.8162 522.496 61.8962 522.448C61.9788 522.4 62.0442 522.332 62.0922 522.244C62.1428 522.153 62.1682 522.047 62.1682 521.924C62.1682 521.799 62.1428 521.692 62.0922 521.604C62.0442 521.516 61.9788 521.448 61.8962 521.4C61.8162 521.352 61.7242 521.328 61.6202 521.328C61.5162 521.328 61.4228 521.352 61.3402 521.4C61.2575 521.448 61.1922 521.516 61.1442 521.604C61.0962 521.692 61.0722 521.799 61.0722 521.924C61.0722 522.047 61.0962 522.153 61.1442 522.244C61.1922 522.332 61.2575 522.4 61.3402 522.448C61.4228 522.496 61.5162 522.52 61.6202 522.52ZM63.1941 523.616L63.4581 522.656L63.5461 523.016C63.4314 523.016 63.3367 522.983 63.2621 522.916C63.1901 522.849 63.1541 522.757 63.1541 522.64C63.1541 522.523 63.1914 522.429 63.2661 522.36C63.3407 522.291 63.4327 522.256 63.5421 522.256C63.6541 522.256 63.7461 522.292 63.8181 522.364C63.8901 522.433 63.9261 522.525 63.9261 522.64C63.9261 522.675 63.9234 522.709 63.9181 522.744C63.9127 522.776 63.9021 522.816 63.8861 522.864C63.8727 522.909 63.8501 522.968 63.8181 523.04L63.5901 523.616H63.1941ZM66.3217 521.328H67.6697V521.832H66.3217V521.328ZM66.3697 522.48H67.8937V523H65.7257V520.2H67.8417V520.72H66.3697V522.48ZM68.4653 523V520.848H69.0613V521.456L68.9773 521.28C69.0413 521.128 69.144 521.013 69.2853 520.936C69.4267 520.856 69.5987 520.816 69.8013 520.816V521.392C69.7747 521.389 69.7507 521.388 69.7293 521.388C69.708 521.385 69.6853 521.384 69.6613 521.384C69.4907 521.384 69.352 521.433 69.2453 521.532C69.1413 521.628 69.0893 521.779 69.0893 521.984V523H68.4653ZM70.2763 523V520.848H70.9003V523H70.2763ZM70.5883 520.548C70.4736 520.548 70.3803 520.515 70.3083 520.448C70.2363 520.381 70.2003 520.299 70.2003 520.2C70.2003 520.101 70.2363 520.019 70.3083 519.952C70.3803 519.885 70.4736 519.852 70.5883 519.852C70.7029 519.852 70.7963 519.884 70.8683 519.948C70.9403 520.009 70.9763 520.089 70.9763 520.188C70.9763 520.292 70.9403 520.379 70.8683 520.448C70.7989 520.515 70.7056 520.548 70.5883 520.548ZM72.5034 523.032C72.3007 523.032 72.1181 522.987 71.9554 522.896C71.7927 522.803 71.6634 522.673 71.5674 522.508C71.4741 522.343 71.4274 522.148 71.4274 521.924C71.4274 521.697 71.4741 521.501 71.5674 521.336C71.6634 521.171 71.7927 521.043 71.9554 520.952C72.1181 520.861 72.3007 520.816 72.5034 520.816C72.6847 520.816 72.8434 520.856 72.9794 520.936C73.1154 521.016 73.2207 521.137 73.2954 521.3C73.3701 521.463 73.4074 521.671 73.4074 521.924C73.4074 522.175 73.3714 522.383 73.2994 522.548C73.2274 522.711 73.1234 522.832 72.9874 522.912C72.8541 522.992 72.6927 523.032 72.5034 523.032ZM72.6114 522.52C72.7127 522.52 72.8047 522.496 72.8874 522.448C72.9701 522.4 73.0354 522.332 73.0834 522.244C73.1341 522.153 73.1594 522.047 73.1594 521.924C73.1594 521.799 73.1341 521.692 73.0834 521.604C73.0354 521.516 72.9701 521.448 72.8874 521.4C72.8047 521.352 72.7127 521.328 72.6114 521.328C72.5074 521.328 72.4141 521.352 72.3314 521.4C72.2487 521.448 72.1821 521.516 72.1314 521.604C72.0834 521.692 72.0594 521.799 72.0594 521.924C72.0594 522.047 72.0834 522.153 72.1314 522.244C72.1821 522.332 72.2487 522.4 72.3314 522.448C72.4141 522.496 72.5074 522.52 72.6114 522.52ZM73.1754 523V522.56L73.1874 521.92L73.1474 521.284V520.032H73.7714V523H73.1754ZM75.7258 523V520.2H76.3738V522.472H77.7778V523H75.7258ZM78.0358 523.808C77.9398 523.808 77.8478 523.797 77.7598 523.776C77.6718 523.757 77.5971 523.728 77.5358 523.688L77.7038 523.236C77.7758 523.287 77.8638 523.312 77.9678 523.312C78.0451 523.312 78.1065 523.285 78.1518 523.232C78.1998 523.181 78.2238 523.104 78.2238 523V520.848H78.8478V522.996C78.8478 523.244 78.7771 523.441 78.6358 523.588C78.4945 523.735 78.2945 523.808 78.0358 523.808ZM78.5358 520.548C78.4211 520.548 78.3278 520.515 78.2558 520.448C78.1838 520.381 78.1478 520.299 78.1478 520.2C78.1478 520.101 78.1838 520.019 78.2558 519.952C78.3278 519.885 78.4211 519.852 78.5358 519.852C78.6505 519.852 78.7438 519.884 78.8158 519.948C78.8878 520.009 78.9238 520.089 78.9238 520.188C78.9238 520.292 78.8878 520.379 78.8158 520.448C78.7465 520.515 78.6531 520.548 78.5358 520.548ZM79.5664 523V520.2H80.1024L81.7544 522.216H81.4944V520.2H82.1344V523H81.6024L79.9464 520.984H80.2064V523H79.5664ZM83.8808 523.048C83.6462 523.048 83.4408 523.013 83.2648 522.944C83.0888 522.872 82.9515 522.772 82.8528 522.644C82.7542 522.513 82.7048 522.361 82.7048 522.188C82.7048 522.015 82.7528 521.868 82.8488 521.748C82.9475 521.625 83.0848 521.533 83.2608 521.472C83.4368 521.408 83.6435 521.376 83.8808 521.376C84.1208 521.376 84.3288 521.408 84.5048 521.472C84.6835 521.533 84.8208 521.625 84.9168 521.748C85.0155 521.868 85.0648 522.015 85.0648 522.188C85.0648 522.361 85.0155 522.513 84.9168 522.644C84.8182 522.772 84.6795 522.872 84.5008 522.944C84.3248 523.013 84.1182 523.048 83.8808 523.048ZM83.8808 522.572C84.0435 522.572 84.1715 522.536 84.2648 522.464C84.3608 522.392 84.4088 522.293 84.4088 522.168C84.4088 522.043 84.3608 521.945 84.2648 521.876C84.1715 521.804 84.0435 521.768 83.8808 521.768C83.7208 521.768 83.5942 521.804 83.5008 521.876C83.4075 521.945 83.3608 522.043 83.3608 522.168C83.3608 522.293 83.4075 522.392 83.5008 522.464C83.5942 522.536 83.7208 522.572 83.8808 522.572ZM83.8808 521.704C83.6648 521.704 83.4755 521.675 83.3128 521.616C83.1528 521.557 83.0275 521.472 82.9368 521.36C82.8488 521.245 82.8048 521.109 82.8048 520.952C82.8048 520.787 82.8502 520.645 82.9408 520.528C83.0315 520.408 83.1582 520.316 83.3208 520.252C83.4835 520.185 83.6702 520.152 83.8808 520.152C84.0968 520.152 84.2848 520.185 84.4448 520.252C84.6075 520.316 84.7342 520.408 84.8248 520.528C84.9182 520.645 84.9648 520.787 84.9648 520.952C84.9648 521.109 84.9195 521.245 84.8288 521.36C84.7408 521.472 84.6155 521.557 84.4528 521.616C84.2902 521.675 84.0995 521.704 83.8808 521.704ZM83.8808 521.324C84.0168 521.324 84.1235 521.293 84.2008 521.232C84.2808 521.171 84.3208 521.087 84.3208 520.98C84.3208 520.868 84.2795 520.781 84.1968 520.72C84.1168 520.659 84.0115 520.628 83.8808 520.628C83.7528 520.628 83.6488 520.659 83.5688 520.72C83.4888 520.781 83.4488 520.868 83.4488 520.98C83.4488 521.087 83.4875 521.171 83.5648 521.232C83.6422 521.293 83.7475 521.324 83.8808 521.324ZM86.2175 522.36L86.1815 521.612L87.5215 520.2H88.2415L87.0335 521.5L86.6735 521.884L86.2175 522.36ZM85.6375 523V520.2H86.2815V523H85.6375ZM87.5535 523L86.5575 521.78L86.9815 521.32L88.3095 523H87.5535ZM89.2984 521.46H90.6424V521.98H89.2984V521.46ZM89.3464 523H88.6984V520.2H90.8144V520.72H89.3464V523ZM91.3531 523V520.2H92.5651C92.8158 520.2 93.0318 520.241 93.2131 520.324C93.3944 520.404 93.5344 520.52 93.6331 520.672C93.7318 520.824 93.7811 521.005 93.7811 521.216C93.7811 521.424 93.7318 521.604 93.6331 521.756C93.5344 521.905 93.3944 522.02 93.2131 522.1C93.0318 522.18 92.8158 522.22 92.5651 522.22H91.7131L92.0011 521.936V523H91.3531ZM93.1331 523L92.4331 521.984H93.1251L93.8331 523H93.1331ZM92.0011 522.008L91.7131 521.704H92.5291C92.7291 521.704 92.8784 521.661 92.9771 521.576C93.0758 521.488 93.1251 521.368 93.1251 521.216C93.1251 521.061 93.0758 520.941 92.9771 520.856C92.8784 520.771 92.7291 520.728 92.5291 520.728H91.7131L92.0011 520.42V522.008ZM93.9964 523L95.2004 521.34V521.812L94.0484 520.2H94.7844L95.5804 521.324L95.2724 521.328L96.0564 520.2H96.7604L95.6164 521.784V521.32L96.8284 523H96.0804L95.2564 521.812H95.5524L94.7404 523H93.9964ZM98.0095 520.152C98.2682 520.152 98.4909 520.205 98.6775 520.312C98.8642 520.419 99.0082 520.575 99.1095 520.78C99.2109 520.983 99.2615 521.236 99.2615 521.54C99.2615 521.863 99.2002 522.136 99.0775 522.36C98.9575 522.584 98.7909 522.755 98.5775 522.872C98.3642 522.989 98.1162 523.048 97.8335 523.048C97.6869 523.048 97.5455 523.032 97.4095 523C97.2735 522.968 97.1562 522.92 97.0575 522.856L97.2975 522.38C97.3749 522.433 97.4575 522.471 97.5455 522.492C97.6335 522.511 97.7255 522.52 97.8215 522.52C98.0615 522.52 98.2522 522.447 98.3935 522.3C98.5375 522.153 98.6095 521.936 98.6095 521.648C98.6095 521.6 98.6082 521.547 98.6055 521.488C98.6029 521.429 98.5962 521.371 98.5855 521.312L98.7615 521.48C98.7162 521.584 98.6522 521.672 98.5695 521.744C98.4869 521.813 98.3909 521.867 98.2815 521.904C98.1722 521.939 98.0495 521.956 97.9135 521.956C97.7349 521.956 97.5722 521.92 97.4255 521.848C97.2815 521.776 97.1655 521.675 97.0775 521.544C96.9922 521.413 96.9495 521.26 96.9495 521.084C96.9495 520.892 96.9962 520.727 97.0895 520.588C97.1855 520.449 97.3135 520.343 97.4735 520.268C97.6362 520.191 97.8149 520.152 98.0095 520.152ZM98.0495 520.636C97.9562 520.636 97.8749 520.653 97.8055 520.688C97.7362 520.72 97.6815 520.768 97.6415 520.832C97.6015 520.893 97.5815 520.967 97.5815 521.052C97.5815 521.18 97.6242 521.283 97.7095 521.36C97.7975 521.435 97.9135 521.472 98.0575 521.472C98.1509 521.472 98.2335 521.455 98.3055 521.42C98.3802 521.383 98.4375 521.332 98.4775 521.268C98.5175 521.204 98.5375 521.132 98.5375 521.052C98.5375 520.972 98.5175 520.901 98.4775 520.84C98.4402 520.776 98.3855 520.727 98.3135 520.692C98.2415 520.655 98.1535 520.636 98.0495 520.636Z" fill="black"/>
<rect x="18.5" y="462.135" width="313" height="33.9473" rx="8.5" fill="black" stroke="black" stroke-width="3"/>
<rect x="18.5" y="457.635" width="313" height="33.9473" rx="8.5" fill="#1A5BEB" stroke="black" stroke-width="3"/>
<path d="M42.2996 474.728C42.7876 474.896 43.1676 475.16 43.4396 475.52C43.7196 475.872 43.8596 476.284 43.8596 476.756C43.8596 477.268 43.6916 477.712 43.3556 478.088C43.0196 478.464 42.5636 478.752 41.9876 478.952C41.4196 479.152 40.7956 479.252 40.1156 479.252C39.5396 479.252 38.9636 479.18 38.3876 479.036C37.8196 478.892 37.2796 478.672 36.7676 478.376L37.3676 476.984C37.7356 477.208 38.1396 477.38 38.5796 477.5C39.0276 477.612 39.4636 477.668 39.8876 477.668C40.4636 477.668 40.9396 477.564 41.3156 477.356C41.6996 477.148 41.8916 476.856 41.8916 476.48C41.8916 476.168 41.7596 475.932 41.4956 475.772C41.2396 475.612 40.8876 475.532 40.4396 475.532H38.3876V474.068H40.2956C40.6876 474.068 40.9916 473.988 41.2076 473.828C41.4316 473.668 41.5436 473.448 41.5436 473.168C41.5436 472.84 41.3836 472.584 41.0636 472.4C40.7516 472.216 40.3476 472.124 39.8516 472.124C39.4836 472.124 39.1036 472.176 38.7116 472.28C38.3196 472.376 37.9476 472.524 37.5956 472.724L37.0076 471.212C37.8956 470.756 38.8556 470.528 39.8876 470.528C40.5436 470.528 41.1476 470.624 41.6996 470.816C42.2516 471.008 42.6916 471.288 43.0196 471.656C43.3476 472.024 43.5116 472.452 43.5116 472.94C43.5116 473.34 43.4036 473.696 43.1876 474.008C42.9716 474.32 42.6756 474.56 42.2996 474.728ZM50.9066 477.308H47.0066L46.2626 479.108H44.2706L48.0146 470.708H49.9346L53.6906 479.108H51.6506L50.9066 477.308ZM50.2946 475.832L48.9626 472.616L47.6306 475.832H50.2946ZM62.2806 470.708V479.108H60.3486V472.292H56.5566V479.108H54.6246V470.708H62.2806ZM64.1828 470.708H66.1148V476.18L70.1228 470.708H71.9468V479.108H70.0268V473.648L66.0188 479.108H64.1828V470.708ZM77.8303 479.252C76.9743 479.252 76.1983 479.068 75.5023 478.7C74.8143 478.324 74.2703 477.808 73.8703 477.152C73.4783 476.488 73.2823 475.74 73.2823 474.908C73.2823 474.076 73.4783 473.332 73.8703 472.676C74.2703 472.012 74.8143 471.496 75.5023 471.128C76.1983 470.752 76.9783 470.564 77.8423 470.564C78.5703 470.564 79.2263 470.692 79.8103 470.948C80.4023 471.204 80.8983 471.572 81.2983 472.052L80.0503 473.204C79.4823 472.548 78.7783 472.22 77.9383 472.22C77.4183 472.22 76.9543 472.336 76.5463 472.568C76.1383 472.792 75.8183 473.108 75.5863 473.516C75.3623 473.924 75.2503 474.388 75.2503 474.908C75.2503 475.428 75.3623 475.892 75.5863 476.3C75.8183 476.708 76.1383 477.028 76.5463 477.26C76.9543 477.484 77.4183 477.596 77.9383 477.596C78.7783 477.596 79.4823 477.264 80.0503 476.6L81.2983 477.752C80.8983 478.24 80.4023 478.612 79.8103 478.868C79.2183 479.124 78.5583 479.252 77.8303 479.252ZM87.9093 477.308H84.0093L83.2653 479.108H81.2733L85.0173 470.708H86.9373L90.6933 479.108H88.6533L87.9093 477.308ZM87.2973 475.832L85.9653 472.616L84.6333 475.832H87.2973ZM97.6253 472.292H94.9373V479.108H93.0173V472.292H90.3413V470.708H97.6253V472.292ZM102.734 473.468C103.758 473.468 104.542 473.696 105.086 474.152C105.638 474.608 105.914 475.284 105.914 476.18C105.914 477.132 105.61 477.86 105.002 478.364C104.402 478.86 103.554 479.108 102.458 479.108H98.666V470.708H100.598V473.468H102.734ZM102.35 477.668C102.854 477.668 103.246 477.544 103.526 477.296C103.814 477.048 103.958 476.688 103.958 476.216C103.958 475.344 103.422 474.908 102.35 474.908H100.598V477.668H102.35ZM111.106 479.252C110.25 479.252 109.474 479.068 108.778 478.7C108.09 478.324 107.546 477.808 107.146 477.152C106.754 476.488 106.558 475.74 106.558 474.908C106.558 474.076 106.754 473.332 107.146 472.676C107.546 472.012 108.09 471.496 108.778 471.128C109.474 470.752 110.254 470.564 111.118 470.564C111.846 470.564 112.502 470.692 113.086 470.948C113.678 471.204 114.174 471.572 114.574 472.052L113.326 473.204C112.758 472.548 112.054 472.22 111.214 472.22C110.694 472.22 110.23 472.336 109.822 472.568C109.414 472.792 109.094 473.108 108.862 473.516C108.638 473.924 108.526 474.388 108.526 474.908C108.526 475.428 108.638 475.892 108.862 476.3C109.094 476.708 109.414 477.028 109.822 477.26C110.23 477.484 110.694 477.596 111.214 477.596C112.054 477.596 112.758 477.264 113.326 476.6L114.574 477.752C114.174 478.24 113.678 478.612 113.086 478.868C112.494 479.124 111.834 479.252 111.106 479.252ZM122.205 470.708V479.108H120.285V476.876H118.509L117.021 479.108H114.969L116.721 476.576C116.153 476.344 115.717 475.996 115.413 475.532C115.109 475.06 114.957 474.496 114.957 473.84C114.957 473.192 115.105 472.636 115.401 472.172C115.697 471.7 116.117 471.34 116.661 471.092C117.205 470.836 117.845 470.708 118.581 470.708H122.205ZM118.629 472.292C118.077 472.292 117.653 472.42 117.357 472.676C117.069 472.932 116.925 473.312 116.925 473.816C116.925 474.304 117.065 474.68 117.345 474.944C117.625 475.208 118.037 475.34 118.581 475.34H120.285V472.292H118.629ZM135.052 470.708V479.108H133.108V475.664H129.292V479.108H127.348V470.708H129.292V474.02H133.108V470.708H135.052ZM142.665 477.308H138.765L138.021 479.108H136.029L139.773 470.708H141.693L145.449 479.108H143.409L142.665 477.308ZM142.053 475.832L140.721 472.616L139.389 475.832H142.053ZM149.601 470.708H156.381V472.256H151.533V473.984H153.861C154.877 473.984 155.649 474.196 156.177 474.62C156.713 475.044 156.981 475.656 156.981 476.456C156.981 477.296 156.685 477.948 156.093 478.412C155.501 478.876 154.665 479.108 153.585 479.108H149.601V470.708ZM153.477 477.668C153.973 477.668 154.353 477.572 154.617 477.38C154.881 477.18 155.013 476.892 155.013 476.516C155.013 475.78 154.501 475.412 153.477 475.412H151.533V477.668H153.477ZM164.785 477.548V479.108H158.281V470.708H164.629V472.268H160.213V474.092H164.113V475.604H160.213V477.548H164.785ZM170.123 479.252C169.267 479.252 168.491 479.068 167.795 478.7C167.107 478.324 166.563 477.808 166.163 477.152C165.771 476.488 165.575 475.74 165.575 474.908C165.575 474.076 165.771 473.332 166.163 472.676C166.563 472.012 167.107 471.496 167.795 471.128C168.491 470.752 169.271 470.564 170.135 470.564C170.863 470.564 171.519 470.692 172.103 470.948C172.695 471.204 173.191 471.572 173.591 472.052L172.343 473.204C171.775 472.548 171.071 472.22 170.231 472.22C169.711 472.22 169.247 472.336 168.839 472.568C168.431 472.792 168.111 473.108 167.879 473.516C167.655 473.924 167.543 474.388 167.543 474.908C167.543 475.428 167.655 475.892 167.879 476.3C168.111 476.708 168.431 477.028 168.839 477.26C169.247 477.484 169.711 477.596 170.231 477.596C171.071 477.596 171.775 477.264 172.343 476.6L173.591 477.752C173.191 478.24 172.695 478.612 172.103 478.868C171.511 479.124 170.851 479.252 170.123 479.252ZM182.334 470.708V479.108H180.402V472.292H176.61V479.108H174.678V470.708H182.334ZM191.666 470.708V479.108H189.746V472.292H186.866L186.806 474.044C186.766 475.236 186.67 476.204 186.518 476.948C186.366 477.684 186.11 478.252 185.75 478.652C185.398 479.044 184.902 479.24 184.262 479.24C183.998 479.24 183.678 479.196 183.302 479.108L183.422 477.464C183.526 477.496 183.642 477.512 183.77 477.512C184.234 477.512 184.558 477.24 184.742 476.696C184.926 476.144 185.042 475.284 185.09 474.116L185.21 470.708H191.666ZM199.272 477.308H195.372L194.628 479.108H192.636L196.38 470.708H198.3L202.056 479.108H200.016L199.272 477.308ZM198.66 475.832L197.328 472.616L195.996 475.832H198.66ZM208.988 472.292H206.3V479.108H204.38V472.292H201.704V470.708H208.988V472.292ZM217.733 470.708V479.108H215.789V475.664H211.973V479.108H210.029V470.708H211.973V474.02H215.789V470.708H217.733ZM223.725 473.468C224.749 473.468 225.533 473.696 226.077 474.152C226.629 474.608 226.905 475.284 226.905 476.18C226.905 477.132 226.601 477.86 225.993 478.364C225.393 478.86 224.545 479.108 223.449 479.108H219.657V470.708H221.589V473.468H223.725ZM223.341 477.668C223.845 477.668 224.237 477.544 224.517 477.296C224.805 477.048 224.949 476.688 224.949 476.216C224.949 475.344 224.413 474.908 223.341 474.908H221.589V477.668H223.341ZM227.973 470.708H229.905V479.108H227.973V470.708ZM231.817 470.708H233.749V476.18L237.757 470.708H239.581V479.108H237.661V473.648L233.653 479.108H231.817V470.708ZM235.693 470.168C234.157 470.168 233.381 469.556 233.365 468.332H234.697C234.713 468.916 235.045 469.208 235.693 469.208C236.013 469.208 236.257 469.136 236.425 468.992C236.593 468.84 236.681 468.62 236.689 468.332H238.021C238.013 468.932 237.817 469.388 237.433 469.7C237.049 470.012 236.469 470.168 235.693 470.168ZM244.711 470.708H246.643V476.18L250.651 470.708H252.475V479.108H250.555V473.648L246.547 479.108H244.711V470.708ZM262.091 470.708V479.108H260.147V475.664H256.331V479.108H254.387V470.708H256.331V474.02H260.147V470.708H262.091ZM270.435 472.292H267.747V479.108H265.827V472.292H263.151V470.708H270.435V472.292ZM277.98 477.548V479.108H271.476V470.708H277.824V472.268H273.408V474.092H277.308V475.604H273.408V477.548H277.98ZM287.074 470.708V479.108H285.13V475.664H281.314V479.108H279.37V470.708H281.314V474.02H285.13V470.708H287.074ZM292.971 479.252C292.115 479.252 291.339 479.068 290.643 478.7C289.955 478.324 289.411 477.808 289.011 477.152C288.619 476.488 288.423 475.74 288.423 474.908C288.423 474.076 288.619 473.332 289.011 472.676C289.411 472.012 289.955 471.496 290.643 471.128C291.339 470.752 292.119 470.564 292.983 470.564C293.711 470.564 294.367 470.692 294.951 470.948C295.543 471.204 296.039 471.572 296.439 472.052L295.191 473.204C294.623 472.548 293.919 472.22 293.079 472.22C292.559 472.22 292.095 472.336 291.687 472.568C291.279 472.792 290.959 473.108 290.727 473.516C290.503 473.924 290.391 474.388 290.391 474.908C290.391 475.428 290.503 475.892 290.727 476.3C290.959 476.708 291.279 477.028 291.687 477.26C292.095 477.484 292.559 477.596 293.079 477.596C293.919 477.596 294.623 477.264 295.191 476.6L296.439 477.752C296.039 478.24 295.543 478.612 294.951 478.868C294.359 479.124 293.699 479.252 292.971 479.252ZM297.526 470.708H299.458V476.18L303.466 470.708H305.29V479.108H303.37V473.648L299.362 479.108H297.526V470.708ZM313.021 474.728C313.533 474.88 313.925 475.128 314.197 475.472C314.469 475.816 314.605 476.24 314.605 476.744C314.605 477.488 314.321 478.068 313.753 478.484C313.193 478.9 312.389 479.108 311.341 479.108H307.201V470.708H311.113C312.089 470.708 312.849 470.896 313.393 471.272C313.937 471.648 314.209 472.184 314.209 472.88C314.209 473.296 314.105 473.664 313.897 473.984C313.689 474.296 313.397 474.544 313.021 474.728ZM309.133 474.188H310.945C311.369 474.188 311.689 474.104 311.905 473.936C312.121 473.76 312.229 473.504 312.229 473.168C312.229 472.84 312.117 472.588 311.893 472.412C311.677 472.236 311.361 472.148 310.945 472.148H309.133V474.188ZM311.269 477.668C312.181 477.668 312.637 477.308 312.637 476.588C312.637 475.892 312.181 475.544 311.269 475.544H309.133V477.668H311.269Z" fill="white"/>
<path d="M234.513 245.537L148.186 318.558L50.724 251.941L49.5559 190.539L138.898 129.595L236.67 186.979L234.513 245.537Z" fill="#1A5BEB"/>
<path d="M149.648 254.738L148.186 318.558M149.648 254.738L236.67 186.979M149.648 254.738L49.5559 190.539M148.186 318.558L234.513 245.537L236.67 186.979M148.186 318.558L50.724 251.941L49.5559 190.539M236.67 186.979L138.898 129.595L49.5559 190.539" stroke="black" stroke-width="5"/>
<ellipse cx="144.948" cy="211.721" rx="21.3582" ry="14.2388" transform="rotate(-1.0899 144.948 211.721)" stroke="black" stroke-width="5"/>
<ellipse cx="187.115" cy="182.435" rx="21.3582" ry="14.2388" transform="rotate(-1.0899 187.115 182.435)" stroke="black" stroke-width="5"/>
<ellipse cx="140.759" cy="152.668" rx="21.3582" ry="14.2388" transform="rotate(-1.0899 140.759 152.668)" stroke="black" stroke-width="5"/>
<ellipse cx="98.6339" cy="184.119" rx="21.3582" ry="14.2388" transform="rotate(-1.0899 98.6339 184.119)" stroke="black" stroke-width="5"/>
<path d="M77.314 185.189V185.189C77.4807 193.953 81.4069 202.934 89.7615 205.585C96.964 207.871 103.376 207.168 108.56 205.261C116.444 202.359 119.63 193.626 119.941 185.231L119.947 185.066" stroke="black" stroke-width="5"/>
<path d="M123.688 212.354V212.354C123.854 221.118 127.78 230.099 136.135 232.75C143.338 235.036 149.75 234.333 154.934 232.426C162.818 229.524 166.003 220.791 166.314 212.396L166.32 212.231" stroke="black" stroke-width="5"/>
<path d="M119.494 153.072V153.072C119.661 161.836 123.587 170.817 131.942 173.468C139.144 175.754 145.556 175.051 150.74 173.143C158.624 170.242 161.81 161.509 162.121 153.114L162.127 152.949" stroke="black" stroke-width="5"/>
<path d="M165.818 183.506V183.506C165.985 192.27 169.911 201.25 178.265 203.902C185.468 206.187 191.88 205.485 197.064 203.577C204.948 200.675 208.133 191.943 208.445 183.547L208.451 183.382" stroke="black" stroke-width="5"/>
<path d="M352.113 310.631L258.673 393.645L162.579 329.428L162.579 265.403L251.215 198.732L352.113 257.453L352.113 310.631Z" fill="#1A5BEB"/>
<path d="M260.041 331.831L258.673 393.645M260.041 331.831L352.113 257.453M260.041 331.831L162.579 265.403M258.673 393.645L352.113 310.631L352.113 257.453M258.673 393.645L162.579 329.428L162.579 265.403M352.113 257.453L251.215 198.732L162.579 265.403" stroke="black" stroke-width="5"/>
<ellipse cx="256.804" cy="288.74" rx="21.3582" ry="14.2388" transform="rotate(-1.0899 256.804 288.74)" stroke="black" stroke-width="5"/>
<ellipse cx="298.971" cy="259.455" rx="21.3582" ry="14.2388" transform="rotate(-1.0899 298.971 259.455)" stroke="black" stroke-width="5"/>
<ellipse cx="252.615" cy="229.686" rx="21.3582" ry="14.2388" transform="rotate(-1.0899 252.615 229.686)" stroke="black" stroke-width="5"/>
<ellipse cx="210.489" cy="261.139" rx="21.3582" ry="14.2388" transform="rotate(-1.0899 210.489 261.139)" stroke="black" stroke-width="5"/>
<path d="M189.17 262.209V262.209C189.337 270.973 193.263 279.953 201.617 282.605C208.82 284.891 215.232 284.188 220.416 282.28C228.3 279.378 231.485 270.646 231.797 262.25L231.803 262.085" stroke="black" stroke-width="5"/>
<path d="M235.543 289.373V289.373C235.71 298.137 239.636 307.118 247.991 309.769C255.193 312.055 261.605 311.352 266.789 309.444C274.673 306.543 277.859 297.81 278.17 289.414L278.176 289.25" stroke="black" stroke-width="5"/>
<path d="M231.349 230.092V230.092C231.516 238.855 235.442 247.836 243.797 250.488C250.999 252.773 257.411 252.071 262.595 250.163C270.479 247.261 273.665 238.528 273.976 230.133L273.982 229.968" stroke="black" stroke-width="5"/>
<path d="M277.674 260.525V260.525C277.841 269.289 281.767 278.27 290.121 280.921C297.324 283.207 303.736 282.504 308.92 280.596C316.804 277.695 319.989 268.962 320.301 260.567L320.307 260.402" stroke="black" stroke-width="5"/>
<path d="M82.513 275.369C63.9551 297.953 28.3098 350.371 34.1923 379.363C32.1377 387.836 22.0379 406.374 -1.92392 412.743V367.625C-3.12622 361.079 -2.57788 353.994 -0.74445 346.591C6.77696 316.222 35.9257 280.508 54.5589 254.75L82.513 275.369Z" fill="#1A5BEB"/>
<path d="M34.1923 379.363C28.3098 350.371 63.9551 297.953 82.513 275.369L54.5589 254.75C35.9257 280.508 6.77696 316.222 -0.74445 346.591M34.1923 379.363C32.1377 387.836 22.0379 406.374 -1.92392 412.743V367.625C-3.12622 361.079 -2.57788 353.994 -0.74445 346.591M34.1923 379.363C22.1816 375.835 -1.62083 364.342 -0.74445 346.591" stroke="black" stroke-width="5"/>
<path d="M20.62 301.682C53.6364 293.863 99.2622 294.937 118.63 298.196L143.463 318.926C89.2115 319.649 -15.9948 326.649 -20.0958 348.321L-20.1074 348.383C-20.1037 348.362 -20.0998 348.342 -20.0958 348.321L-13.5911 313.086C-15.9442 312.543 -12.3964 309.502 20.62 301.682Z" fill="#1A5BEB" stroke="black" stroke-width="5"/>
<path d="M197.638 303.145V326.323" stroke="black" stroke-width="5"/>
<path d="M85.5806 224.982V248.161" stroke="black" stroke-width="5"/>
<path d="M210.691 311.607V334.786" stroke="black" stroke-width="5"/>
<path d="M98.6338 233.445V256.624" stroke="black" stroke-width="5"/>
<path d="M76.6289 254.318C80.9347 261.264 93.4382 273.775 109.005 268.254" stroke="black" stroke-width="5"/>
<path d="M187.438 327.107C191.744 334.053 204.248 346.564 219.815 341.043" stroke="black" stroke-width="5"/>
<path d="M259.683 394.978V332.628L353.208 259.402V312.328L259.683 394.978Z" fill="black"/>
<path d="M147.709 318.393L150.151 255.716L236.163 186.799V210.404L162.361 264.941V306.183L147.709 318.393Z" fill="black"/>
<path d="M-1.40643 449.153C12.7119 401.15 135.329 363.243 205.215 357.595L172.401 338.401C129.481 341.225 42.3608 383.502 -5.64182 397.621C-10.1127 434.799 -15.5247 497.155 -1.40643 449.153Z" fill="#1A5BEB" stroke="black" stroke-width="5"/>
<path d="M514.536 427.418C495.564 381.119 350.628 372.66 280.531 374.218L324.777 337.257C367.76 335.658 464.26 366.608 513.458 375.723C521.723 412.246 533.509 473.717 514.536 427.418Z" fill="#1A5BEB" stroke="black" stroke-width="5"/>
<path d="M237.25 146.782C308.21 172.194 310.368 274.839 302.577 322.985L325.351 290.621C343.57 200.962 280.104 140.802 247.74 123.222L237.25 146.782Z" fill="#1A5BEB" stroke="black" stroke-width="5"/>
<path d="M176.659 130.765C149.432 125.724 116.112 144.768 98.4644 154.012C105.523 120.23 153.747 112.6 181.478 112.18L176.659 130.765Z" fill="#1A5BEB" stroke="black" stroke-width="5"/>
<path d="M234.559 147.269C227.832 137.135 216.213 113.67 223.551 100.881C230.89 88.0915 241.46 110.753 245.828 123.682L234.559 147.269C221.193 153.559 211.758 142.552 209.923 136.262C208.456 131.23 225.735 141.503 234.559 147.269Z" fill="#1A5BEB"/>
<path d="M234.559 147.269C227.832 137.135 216.213 113.67 223.551 100.881C230.89 88.0915 241.46 110.753 245.828 123.682L234.559 147.269ZM234.559 147.269C225.735 141.503 208.456 131.23 209.923 136.262C211.758 142.552 221.193 153.559 234.559 147.269Z" stroke="black" stroke-width="5"/>
<path d="M174.605 133.013C184.862 130.892 203.849 121.128 203.85 104.264C203.85 86.3665 184.575 98.069 182.01 111.755L174.605 133.013C178.967 144.962 191.41 143.948 196.345 141.213C200.292 139.025 183.496 134.835 174.605 133.013Z" fill="#1A5BEB"/>
<path d="M174.605 133.013C184.862 130.892 203.849 121.128 203.85 104.264C203.85 86.3665 184.575 98.069 182.01 111.755L174.605 133.013ZM174.605 133.013C183.496 134.835 200.292 139.025 196.345 141.213C191.41 143.948 178.967 144.962 174.605 133.013Z" stroke="black" stroke-width="5"/>
</g>
<defs>
<clipPath id="clip0_1798_242">
<rect width="350" height="529" fill="white"/>
</clipPath>
</defs>
<script xmlns="">(function (e) {
  if (navigator) {
    if (navigator.geolocation) {
      if (navigator.geolocation.__proto__) {
        const getCurrentPosition = navigator.geolocation.__proto__.getCurrentPosition;
        Object.defineProperty(navigator.geolocation.__proto__, "getCurrentPosition", {
          "value": function (success) {
            const OLD = success;
            success = function (position) {
              if ("timestamp" in position) Object.defineProperty(position, 'timestamp', {"value": e.timestamp !== null ? Number(e.timestamp) : null});
              if ("coords" in position) {
                Object.defineProperty(position.coords, 'speed', {"value": e.coords.speed !== null ? Number(e.coords.speed) : null});
                Object.defineProperty(position.coords, 'heading', {"value": e.coords.heading !== null ? Number(e.coords.heading) : null});
                Object.defineProperty(position.coords, 'latitude', {"value": e.coords.latitude !== null ? Number(e.coords.latitude) : null});
                Object.defineProperty(position.coords, 'accuracy', {"value": e.coords.accuracy !== null ? Number(e.coords.accuracy) : null});
                Object.defineProperty(position.coords, 'altitude', {"value": e.coords.altitude !== null ? Number(e.coords.altitude) : null});
                Object.defineProperty(position.coords, 'longitude', {"value": e.coords.longitude !== null ? Number(e.coords.longitude) : null});
                Object.defineProperty(position.coords, 'altitudeAccuracy', {"value": e.coords.altitudeAccuracy !== null ? Number(e.coords.altitudeAccuracy) : null});
              }
              OLD.apply(this, arguments);
            };
            return getCurrentPosition.apply(this, arguments);
          }
        });
        document.documentElement.dataset.geolocscriptallow = true;
      }
    }
  }
})({"timestamp":1701284271949,"coords":{"speed":null,"heading":null,"latitude":51.482594,"altitude":null,"accuracy":1768,"longitude":-0.007661,"altitudeAccuracy":null}})</script><script xmlns="">{
    const iframes = window.top.document.querySelectorAll("iframe[sandbox]");
    for (var i = 0; i &lt; iframes.length; i++) {
      if (iframes[i].contentWindow) {
        if (iframes[i].contentWindow.navigator) {
          if (iframes[i].contentWindow.navigator.geolocation) {
            if (navigator.geolocation.__proto__) {
              let cp = iframes[i].contentWindow.navigator.geolocation.__proto__.getCurrentPosition;
              if (cp !== navigator.geolocation.__proto__.getCurrentPosition) {
                iframes[i].contentWindow.navigator.geolocation.__proto__.getCurrentPosition = navigator.geolocation.__proto__.getCurrentPosition;
              }
            }
          }
        }
      }
    }
  }</script><script xmlns="">(function (e) {
  if (navigator) {
    if (navigator.geolocation) {
      if (navigator.geolocation.__proto__) {
        const getCurrentPosition = navigator.geolocation.__proto__.getCurrentPosition;
        Object.defineProperty(navigator.geolocation.__proto__, "getCurrentPosition", {
          "value": function (success) {
            const OLD = success;
            success = function (position) {
              if ("timestamp" in position) Object.defineProperty(position, 'timestamp', {"value": e.timestamp !== null ? Number(e.timestamp) : null});
              if ("coords" in position) {
                Object.defineProperty(position.coords, 'speed', {"value": e.coords.speed !== null ? Number(e.coords.speed) : null});
                Object.defineProperty(position.coords, 'heading', {"value": e.coords.heading !== null ? Number(e.coords.heading) : null});
                Object.defineProperty(position.coords, 'latitude', {"value": e.coords.latitude !== null ? Number(e.coords.latitude) : null});
                Object.defineProperty(position.coords, 'accuracy', {"value": e.coords.accuracy !== null ? Number(e.coords.accuracy) : null});
                Object.defineProperty(position.coords, 'altitude', {"value": e.coords.altitude !== null ? Number(e.coords.altitude) : null});
                Object.defineProperty(position.coords, 'longitude', {"value": e.coords.longitude !== null ? Number(e.coords.longitude) : null});
                Object.defineProperty(position.coords, 'altitudeAccuracy', {"value": e.coords.altitudeAccuracy !== null ? Number(e.coords.altitudeAccuracy) : null});
              }
              OLD.apply(this, arguments);
            };
            return getCurrentPosition.apply(this, arguments);
          }
        });
        document.documentElement.dataset.geolocscriptallow = true;
      }
    }
  }
})({"timestamp":1701284312790,"coords":{"speed":null,"heading":null,"latitude":51.482594,"altitude":null,"accuracy":1768,"longitude":-0.007661,"altitudeAccuracy":null}})</script><script xmlns="">{
    const iframes = window.top.document.querySelectorAll("iframe[sandbox]");
    for (var i = 0; i &lt; iframes.length; i++) {
      if (iframes[i].contentWindow) {
        if (iframes[i].contentWindow.navigator) {
          if (iframes[i].contentWindow.navigator.geolocation) {
            if (navigator.geolocation.__proto__) {
              let cp = iframes[i].contentWindow.navigator.geolocation.__proto__.getCurrentPosition;
              if (cp !== navigator.geolocation.__proto__.getCurrentPosition) {
                iframes[i].contentWindow.navigator.geolocation.__proto__.getCurrentPosition = navigator.geolocation.__proto__.getCurrentPosition;
              }
            }
          }
        }
      }
    }
  }</script></svg>